<svg width="160" height="24" viewBox="0 0 160 24" fill="none" xmlns="http://www.w3.org/2000/svg">
<path d="M22.9595 11.98C22.9595 18.5952 17.8203 23.9579 11.4807 23.9579C5.14117 23.9579 0.00195312 18.5952 0.00195312 11.98C0.00195312 5.36485 5.14117 0.00219727 11.4807 0.00219727C17.8203 0.00219727 22.9595 5.36485 22.9595 11.98Z" fill="#006FF0"/>
<path d="M6.69935 5.90363C4.77838 9.80189 5.40372 10.5709 3.71567 12.3323C3.73983 12.3071 5.18448 10.9084 5.20776 10.8823L6.66804 9.24653C7.03717 8.83305 7.55289 8.59789 8.09443 8.60061C11.3481 8.61691 16.6219 8.70826 16.9275 8.59823C18.2465 8.12336 18.2471 7.17344 18.2473 6.69709V6.69624C18.2475 6.34749 18.2471 5.43969 17.2307 4.92408C17.0356 4.8251 16.8165 4.79379 16.5995 4.79378L8.43709 4.79339C7.70619 4.79335 7.03359 5.22536 6.69935 5.90363Z" fill="white"/>
<path d="M7.59721 11.6593C6.61605 12.9503 6.43628 14.6806 6.31527 14.7078L7.89347 14.3537C8.02828 14.3234 8.16493 14.3081 8.30283 14.3084C10.8591 14.3135 15.6699 14.4064 15.933 14.3082C17.0008 13.9096 17.0012 13.1122 17.0014 12.7124V12.7117C17.0016 12.4268 17.0013 11.6972 16.2424 11.2594C16.0461 11.1462 15.8181 11.1148 15.5937 11.1148L8.81951 11.1145C8.35285 11.1145 7.88718 11.2778 7.59721 11.6593Z" fill="white"/>
<path d="M5.11046 19.8997C4.56144 20.0899 4.05425 20.0915 4.01952 20.0978L5.11046 19.8997C5.44119 19.785 5.7871 19.602 6.05407 19.3081C6.99705 18.2703 7.69442 16.5045 9.065 16.5046L15.6226 16.5048C15.8066 16.5049 15.9919 16.5278 16.1633 16.5975C17.2199 17.0271 17.2203 17.8052 17.2201 18.1017V18.1024C17.2198 18.5023 17.2193 19.2996 15.9003 19.6982C15.5722 19.7973 9.5196 19.7017 6.38595 19.6983C6.27378 19.6982 6.164 19.7083 6.05349 19.7284L5.11046 19.8997Z" fill="white"/>
<path d="M28.408 16.588C27.4 16.588 26.58 16.304 25.948 15.736C25.316 15.168 25 14.384 25 13.384V13.288C25 12.304 25.324 11.512 25.972 10.912C26.62 10.304 27.428 10 28.396 10C29.316 10 30.076 10.272 30.676 10.816C31.284 11.36 31.588 12.168 31.588 13.24V13.804H27.172C27.204 14.22 27.332 14.544 27.556 14.776C27.788 15 28.096 15.112 28.48 15.112C29.112 15.112 29.476 14.864 29.572 14.368H31.588C31.492 15.08 31.172 15.628 30.628 16.012C30.092 16.396 29.352 16.588 28.408 16.588ZM27.196 12.592H29.5C29.46 11.808 29.092 11.416 28.396 11.416C28.068 11.416 27.8 11.52 27.592 11.728C27.384 11.928 27.252 12.216 27.196 12.592Z" fill="#006FF0"/>
<path d="M34.712 16.588C34.096 16.588 33.588 16.432 33.188 16.12C32.788 15.808 32.588 15.336 32.588 14.704C32.588 13.336 33.7 12.652 35.924 12.652H36.524V12.508C36.524 12.18 36.464 11.932 36.344 11.764C36.232 11.596 36.016 11.512 35.696 11.512C35.192 11.512 34.908 11.76 34.844 12.256H32.828C32.876 11.52 33.168 10.96 33.704 10.576C34.24 10.192 34.948 10 35.828 10C36.724 10 37.42 10.196 37.916 10.588C38.412 10.972 38.66 11.568 38.66 12.376V16.444H36.572V15.712C36.188 16.296 35.568 16.588 34.712 16.588ZM35.456 15.136C35.768 15.136 36.024 15.056 36.224 14.896C36.424 14.728 36.524 14.512 36.524 14.248V13.864H35.96C35.52 13.864 35.2 13.916 35 14.02C34.808 14.116 34.712 14.292 34.712 14.548C34.712 14.94 34.96 15.136 35.456 15.136Z" fill="#006FF0"/>
<path d="M44.628 16.06C44.132 16.412 43.436 16.588 42.54 16.588C41.644 16.588 40.944 16.408 40.44 16.048C39.944 15.68 39.684 15.148 39.66 14.452H41.64C41.68 14.692 41.764 14.872 41.892 14.992C42.02 15.104 42.232 15.16 42.528 15.16C43.04 15.16 43.296 14.988 43.296 14.644C43.296 14.492 43.208 14.376 43.032 14.296C42.864 14.216 42.564 14.144 42.132 14.08C41.276 13.968 40.664 13.764 40.296 13.468C39.928 13.172 39.744 12.704 39.744 12.064C39.744 11.4 40 10.892 40.512 10.54C41.024 10.18 41.664 10 42.432 10C44.152 10 45.076 10.676 45.204 12.028H43.26C43.18 11.612 42.912 11.404 42.456 11.404C42.232 11.404 42.056 11.448 41.928 11.536C41.808 11.624 41.748 11.744 41.748 11.896C41.748 12.04 41.824 12.152 41.976 12.232C42.136 12.304 42.412 12.364 42.804 12.412C43.716 12.524 44.372 12.728 44.772 13.024C45.18 13.312 45.384 13.78 45.384 14.428C45.384 15.156 45.132 15.7 44.628 16.06Z" fill="#006FF0"/>
<path d="M49.792 16.588C48.784 16.588 47.964 16.304 47.332 15.736C46.7 15.168 46.384 14.384 46.384 13.384V13.288C46.384 12.304 46.708 11.512 47.356 10.912C48.004 10.304 48.812 10 49.78 10C50.7 10 51.46 10.272 52.06 10.816C52.668 11.36 52.972 12.168 52.972 13.24V13.804H48.556C48.588 14.22 48.716 14.544 48.94 14.776C49.172 15 49.48 15.112 49.864 15.112C50.496 15.112 50.86 14.864 50.956 14.368H52.972C52.876 15.08 52.556 15.628 52.012 16.012C51.476 16.396 50.736 16.588 49.792 16.588ZM48.58 12.592H50.884C50.844 11.808 50.476 11.416 49.78 11.416C49.452 11.416 49.184 11.52 48.976 11.728C48.768 11.928 48.636 12.216 48.58 12.592Z" fill="#006FF0"/>
<path d="M53.972 18.544V10.168H56.12V11.104C56.56 10.368 57.212 10 58.076 10C58.844 10 59.476 10.284 59.972 10.852C60.476 11.42 60.728 12.22 60.728 13.252V13.348C60.728 14.388 60.476 15.188 59.972 15.748C59.476 16.308 58.84 16.588 58.064 16.588C57.608 16.588 57.208 16.492 56.864 16.3C56.528 16.1 56.28 15.84 56.12 15.52V18.544H53.972ZM56.384 14.536C56.6 14.808 56.908 14.944 57.308 14.944C57.708 14.944 58.012 14.808 58.22 14.536C58.436 14.264 58.544 13.868 58.544 13.348V13.252C58.544 12.716 58.436 12.312 58.22 12.04C58.004 11.76 57.7 11.62 57.308 11.62C56.916 11.62 56.608 11.76 56.384 12.04C56.168 12.32 56.06 12.72 56.06 13.24V13.336C56.06 13.864 56.168 14.264 56.384 14.536Z" fill="#006FF0"/>
<path d="M63.852 16.588C63.236 16.588 62.728 16.432 62.328 16.12C61.928 15.808 61.728 15.336 61.728 14.704C61.728 13.336 62.84 12.652 65.064 12.652H65.664V12.508C65.664 12.18 65.604 11.932 65.484 11.764C65.372 11.596 65.156 11.512 64.836 11.512C64.332 11.512 64.048 11.76 63.984 12.256H61.968C62.016 11.52 62.308 10.96 62.844 10.576C63.38 10.192 64.088 10 64.968 10C65.864 10 66.56 10.196 67.056 10.588C67.552 10.972 67.8 11.568 67.8 12.376V16.444H65.712V15.712C65.328 16.296 64.708 16.588 63.852 16.588ZM64.596 15.136C64.908 15.136 65.164 15.056 65.364 14.896C65.564 14.728 65.664 14.512 65.664 14.248V13.864H65.1C64.66 13.864 64.34 13.916 64.14 14.02C63.948 14.116 63.852 14.292 63.852 14.548C63.852 14.94 64.1 15.136 64.596 15.136Z" fill="#006FF0"/>
<path d="M70.264 18.376L71.308 15.64L68.8 10H71.128L72.424 13.348L73.624 10H75.676L72.316 18.376H70.264Z" fill="#006FF0"/>
</svg>
