<svg width="1693" height="568" viewBox="0 0 1693 568" fill="none" xmlns="http://www.w3.org/2000/svg">
<path d="M567.002 283.531C567.002 440.09 440.085 567.006 283.526 567.006C126.967 567.006 0.0507812 440.09 0.0507812 283.531C0.0507812 126.972 126.967 0.055542 283.526 0.055542C440.085 0.055542 567.002 126.972 567.002 283.531Z" fill="#006FF0"/>
<path d="M165.447 139.723C118.008 231.982 133.451 250.181 91.7634 291.868C92.36 291.272 128.037 258.168 128.612 257.551L164.674 218.838C173.79 209.052 186.526 203.487 199.9 203.551C280.25 203.937 410.49 206.099 418.038 203.495C450.613 192.256 450.626 169.775 450.632 158.501V158.481C450.637 150.227 450.628 128.743 425.525 116.54C420.707 114.198 415.296 113.457 409.938 113.456L208.362 113.447C190.312 113.446 173.702 123.67 165.447 139.723Z" fill="white"/>
<path d="M187.621 275.941C163.39 306.495 158.951 347.445 155.962 348.088L194.937 339.707C198.266 338.992 201.641 338.629 205.046 338.636C268.175 338.756 386.981 340.955 393.479 338.631C419.849 329.197 419.859 310.327 419.864 300.864V300.847C419.868 294.103 419.861 276.838 401.12 266.477C396.271 263.796 390.64 263.054 385.099 263.054L217.806 263.046C206.282 263.046 194.781 266.912 187.621 275.941Z" fill="white"/>
<path d="M126.209 470.962C112.65 475.465 100.125 475.502 99.2672 475.652L126.209 470.962C134.376 468.25 142.919 463.917 149.512 456.963C172.799 432.4 190.021 390.611 223.869 390.612L385.814 390.618C390.357 390.618 394.932 391.162 399.166 392.811C425.259 402.979 425.269 421.393 425.264 428.411V428.428C425.257 437.891 425.245 456.761 392.67 466.194C384.568 468.541 235.095 466.277 157.708 466.197C154.938 466.194 152.227 466.433 149.497 466.908L126.209 470.962Z" fill="white"/>
<path d="M714.784 382.226C692.995 382.226 675.271 376.087 661.609 363.81C647.948 351.532 641.118 334.585 641.118 312.969V310.894C641.118 289.624 648.121 272.505 662.128 259.535C676.135 246.393 693.601 239.822 714.525 239.822C734.411 239.822 750.839 245.701 763.809 257.46C776.951 269.219 783.522 286.685 783.522 309.857V322.048H688.067C688.759 331.04 691.526 338.044 696.367 343.058C701.382 347.9 708.04 350.321 716.34 350.321C730.002 350.321 737.87 344.961 739.945 334.239H783.522C781.447 349.63 774.53 361.475 762.771 369.775C751.185 378.076 735.189 382.226 714.784 382.226ZM688.586 295.85H738.388C737.524 278.903 729.569 270.43 714.525 270.43C707.435 270.43 701.642 272.678 697.146 277.174C692.65 281.497 689.796 287.722 688.586 295.85Z" fill="#006FF0"/>
<path d="M842.802 382.226C829.487 382.226 818.506 378.854 809.86 372.11C801.214 365.366 796.891 355.163 796.891 341.502C796.891 311.932 820.927 297.147 869.001 297.147H881.97V294.034C881.97 286.944 880.673 281.583 878.079 277.952C875.658 274.32 870.989 272.505 864.072 272.505C853.178 272.505 847.039 277.865 845.656 288.587H802.078C803.116 272.678 809.428 260.573 821.014 252.272C832.6 243.972 847.904 239.822 866.926 239.822C886.293 239.822 901.338 244.058 912.059 252.532C922.781 260.832 928.141 273.715 928.141 291.181V379.113H883.008V363.291C874.707 375.914 861.306 382.226 842.802 382.226ZM858.885 350.84C865.629 350.84 871.162 349.111 875.485 345.652C879.809 342.021 881.97 337.352 881.97 331.645V323.345H869.779C860.268 323.345 853.351 324.469 849.028 326.717C844.878 328.792 842.802 332.596 842.802 338.13C842.802 346.603 848.163 350.84 858.885 350.84Z" fill="#006FF0"/>
<path d="M1052.94 370.813C1042.22 378.422 1027.17 382.226 1007.81 382.226C988.438 382.226 973.307 378.335 962.413 370.554C951.692 362.599 946.072 351.1 945.553 336.055H988.352C989.217 341.243 991.032 345.134 993.799 347.727C996.566 350.148 1001.15 351.359 1007.55 351.359C1018.61 351.359 1024.15 347.641 1024.15 340.205C1024.15 336.92 1022.25 334.412 1018.44 332.683C1014.81 330.954 1008.32 329.397 998.987 328.014C980.484 325.593 967.255 321.183 959.3 314.785C951.346 308.387 947.369 298.271 947.369 284.437C947.369 270.084 952.902 259.103 963.969 251.494C975.037 243.713 988.871 239.822 1005.47 239.822C1042.65 239.822 1062.62 254.434 1065.39 283.658H1023.37C1021.64 274.666 1015.85 270.17 1005.99 270.17C1001.15 270.17 997.344 271.121 994.577 273.024C991.983 274.926 990.686 277.52 990.686 280.805C990.686 283.918 992.329 286.339 995.615 288.068C999.073 289.624 1005.04 290.921 1013.51 291.959C1033.23 294.38 1047.41 298.789 1056.05 305.188C1064.87 311.413 1069.28 321.529 1069.28 335.536C1069.28 351.272 1063.83 363.031 1052.94 370.813Z" fill="#006FF0"/>
<path d="M1155.8 382.226C1134.01 382.226 1116.28 376.087 1102.62 363.81C1088.96 351.532 1082.13 334.585 1082.13 312.969V310.894C1082.13 289.624 1089.13 272.505 1103.14 259.535C1117.15 246.393 1134.61 239.822 1155.54 239.822C1175.42 239.822 1191.85 245.701 1204.82 257.46C1217.96 269.219 1224.53 286.685 1224.53 309.857V322.048H1129.08C1129.77 331.04 1132.54 338.044 1137.38 343.058C1142.39 347.9 1149.05 350.321 1157.35 350.321C1171.01 350.321 1178.88 344.961 1180.96 334.239H1224.53C1222.46 349.63 1215.54 361.475 1203.78 369.775C1192.2 378.076 1176.2 382.226 1155.8 382.226ZM1129.6 295.85H1179.4C1178.54 278.903 1170.58 270.43 1155.54 270.43C1148.45 270.43 1142.65 272.678 1138.16 277.174C1133.66 281.497 1130.81 287.722 1129.6 295.85Z" fill="#006FF0"/>
<path d="M1244.42 424.507V243.453H1290.85V263.686C1300.36 247.776 1314.45 239.822 1333.13 239.822C1349.73 239.822 1363.39 245.961 1374.11 258.238C1385.01 270.516 1390.45 287.809 1390.45 310.116V312.191C1390.45 334.672 1385.01 351.964 1374.11 364.069C1363.39 376.174 1349.64 382.226 1332.87 382.226C1323.01 382.226 1314.37 380.151 1306.93 376.001C1299.67 371.678 1294.31 366.058 1290.85 359.141V424.507H1244.42ZM1296.55 337.871C1301.22 343.75 1307.88 346.69 1316.53 346.69C1325.17 346.69 1331.74 343.75 1336.24 337.871C1340.91 331.991 1343.24 323.431 1343.24 312.191V310.116C1343.24 298.53 1340.91 289.797 1336.24 283.918C1331.57 277.865 1325 274.839 1316.53 274.839C1308.05 274.839 1301.4 277.865 1296.55 283.918C1291.89 289.97 1289.55 298.617 1289.55 309.857V311.932C1289.55 323.345 1291.89 331.991 1296.55 337.871Z" fill="#006FF0"/>
<path d="M1449.22 382.226C1435.91 382.226 1424.93 378.854 1416.28 372.11C1407.64 365.366 1403.31 355.163 1403.31 341.502C1403.31 311.932 1427.35 297.147 1475.42 297.147H1488.39V294.034C1488.39 286.944 1487.1 281.583 1484.5 277.952C1482.08 274.32 1477.41 272.505 1470.49 272.505C1459.6 272.505 1453.46 277.865 1452.08 288.587H1408.5C1409.54 272.678 1415.85 260.573 1427.44 252.272C1439.02 243.972 1454.33 239.822 1473.35 239.822C1492.72 239.822 1507.76 244.058 1518.48 252.532C1529.2 260.832 1534.56 273.715 1534.56 291.181V379.113H1489.43V363.291C1481.13 375.914 1467.73 382.226 1449.22 382.226ZM1465.31 350.84C1472.05 350.84 1477.58 349.111 1481.91 345.652C1486.23 342.021 1488.39 337.352 1488.39 331.645V323.345H1476.2C1466.69 323.345 1459.77 324.469 1455.45 326.717C1451.3 328.792 1449.22 332.596 1449.22 338.13C1449.22 346.603 1454.59 350.84 1465.31 350.84Z" fill="#006FF0"/>
<path d="M1575.96 424.507L1598.53 365.366L1544.32 243.453H1594.64L1622.65 315.823L1648.59 243.453H1692.94L1620.32 424.507H1575.96Z" fill="#006FF0"/>
</svg>
