<svg width="1440" height="1024" viewBox="0 0 1440 1024" fill="none" xmlns="http://www.w3.org/2000/svg">
<rect width="1440" height="1024" fill="#FCFDFE"/>
<path d="M193.214 81.047C193.214 95.4984 181.498 107.214 167.047 107.214C152.596 107.214 140.88 95.4984 140.88 81.047C140.88 66.5956 152.596 54.8804 167.047 54.8804C181.498 54.8804 193.214 66.5956 193.214 81.047Z" fill="#006FF0"/>
<path d="M156.148 67.7726C151.769 76.2886 153.194 77.9685 149.346 81.8166C149.401 81.7615 152.694 78.7058 152.747 78.6489L156.076 75.0754C156.918 74.1721 158.093 73.6584 159.328 73.6643C166.745 73.6999 178.767 73.8995 179.463 73.6591C182.47 72.6218 182.471 70.5466 182.472 69.5059V69.5041C182.472 68.7422 182.471 66.759 180.154 65.6326C179.71 65.4164 179.21 65.348 178.716 65.348L160.109 65.3471C158.443 65.3471 156.909 66.2908 156.148 67.7726Z" fill="white"/>
<path d="M158.194 80.3464C155.958 83.1667 155.548 86.9467 155.272 87.006L158.87 86.2324C159.177 86.1663 159.488 86.1329 159.803 86.1335C165.63 86.1446 176.597 86.3476 177.196 86.133C179.63 85.2623 179.631 83.5204 179.632 82.6469V82.6454C179.632 82.0229 179.632 80.4292 177.902 79.4728C177.454 79.2253 176.934 79.1569 176.423 79.1568L160.981 79.1561C159.917 79.156 158.855 79.5129 158.194 80.3464Z" fill="white"/>
<path d="M152.526 98.3481C151.274 98.7637 150.118 98.7672 150.039 98.781L152.526 98.3481C153.279 98.0977 154.068 97.6978 154.677 97.0559C156.826 94.7886 158.416 90.9311 161.54 90.9312L176.489 90.9318C176.908 90.9318 177.33 90.982 177.721 91.1342C180.13 92.0728 180.131 93.7725 180.13 94.4203V94.4219C180.13 95.2954 180.128 97.0372 177.122 97.908C176.374 98.1246 162.576 97.9157 155.433 97.9082C155.177 97.9079 154.927 97.93 154.675 97.9739L152.526 98.3481Z" fill="white"/>
<path d="M208.689 86.2893C206.407 86.2893 204.551 85.6464 203.12 84.3607C201.69 83.075 200.974 81.3004 200.974 79.0368V78.8195C200.974 76.5922 201.708 74.7994 203.175 73.4413C204.641 72.0651 206.47 71.377 208.661 71.377C210.744 71.377 212.464 71.9926 213.822 73.224C215.199 74.4554 215.887 76.2843 215.887 78.7109V79.9875H205.891C205.963 80.9292 206.253 81.6626 206.76 82.1877C207.285 82.6947 207.982 82.9482 208.852 82.9482C210.282 82.9482 211.106 82.3869 211.323 81.2642H215.887C215.669 82.8758 214.945 84.1162 213.714 84.9855C212.5 85.8547 210.825 86.2893 208.689 86.2893ZM205.945 77.2441H211.16C211.07 75.4695 210.237 74.5821 208.661 74.5821C207.919 74.5821 207.312 74.8176 206.842 75.2884C206.371 75.7411 206.072 76.393 205.945 77.2441Z" fill="#006FF0"/>
<path d="M222.094 86.2893C220.7 86.2893 219.55 85.9361 218.645 85.2299C217.739 84.5237 217.287 83.4553 217.287 82.0247C217.287 78.9282 219.804 77.3799 224.838 77.3799H226.196V77.054C226.196 76.3115 226.06 75.7501 225.789 75.3699C225.535 74.9896 225.046 74.7994 224.322 74.7994C223.181 74.7994 222.538 75.3608 222.393 76.4835H217.83C217.939 74.8176 218.599 73.55 219.813 72.6808C221.026 71.8116 222.629 71.377 224.621 71.377C226.649 71.377 228.224 71.8206 229.347 72.7079C230.47 73.5771 231.031 74.9262 231.031 76.7552V85.9633H226.305V84.3064C225.435 85.6283 224.032 86.2893 222.094 86.2893ZM223.778 83.0026C224.485 83.0026 225.064 82.8215 225.517 82.4593C225.97 82.079 226.196 81.5901 226.196 80.9925V80.1233H224.919C223.923 80.1233 223.199 80.241 222.746 80.4764C222.312 80.6937 222.094 81.0921 222.094 81.6716C222.094 82.5589 222.656 83.0026 223.778 83.0026Z" fill="#006FF0"/>
<path d="M244.1 85.0941C242.977 85.8909 241.401 86.2893 239.373 86.2893C237.345 86.2893 235.761 85.8818 234.62 85.0669C233.497 84.234 232.909 83.0297 232.854 81.4543H237.336C237.427 81.9976 237.617 82.405 237.906 82.6766C238.196 82.9301 238.676 83.0569 239.346 83.0569C240.505 83.0569 241.085 82.6676 241.085 81.8889C241.085 81.5448 240.885 81.2823 240.487 81.1012C240.107 80.9201 239.428 80.7571 238.45 80.6123C236.512 80.3587 235.127 79.897 234.294 79.227C233.461 78.557 233.044 77.4976 233.044 76.0489C233.044 74.5459 233.624 73.396 234.783 72.5993C235.942 71.7844 237.39 71.377 239.129 71.377C243.022 71.377 245.114 72.9071 245.403 75.9674H241.003C240.822 75.0258 240.215 74.555 239.183 74.555C238.676 74.555 238.278 74.6546 237.988 74.8538C237.716 75.053 237.581 75.3246 237.581 75.6687C237.581 75.9946 237.753 76.2481 238.097 76.4292C238.459 76.5922 239.084 76.728 239.971 76.8366C242.035 77.0902 243.52 77.5519 244.426 78.2219C245.349 78.8738 245.811 79.9332 245.811 81.4C245.811 83.0478 245.24 84.2792 244.1 85.0941Z" fill="#006FF0"/>
<path d="M254.87 86.2893C252.589 86.2893 250.733 85.6464 249.302 84.3607C247.871 83.075 247.156 81.3004 247.156 79.0368V78.8195C247.156 76.5922 247.89 74.7994 249.356 73.4413C250.823 72.0651 252.652 71.377 254.843 71.377C256.926 71.377 258.646 71.9926 260.004 73.224C261.38 74.4554 262.069 76.2843 262.069 78.7109V79.9875H252.073C252.145 80.9292 252.435 81.6626 252.942 82.1877C253.467 82.6947 254.164 82.9482 255.033 82.9482C256.464 82.9482 257.288 82.3869 257.505 81.2642H262.069C261.851 82.8758 261.127 84.1162 259.895 84.9855C258.682 85.8547 257.007 86.2893 254.87 86.2893ZM252.127 77.2441H257.342C257.252 75.4695 256.419 74.5821 254.843 74.5821C254.101 74.5821 253.494 74.8176 253.023 75.2884C252.553 75.7411 252.254 76.393 252.127 77.2441Z" fill="#006FF0"/>
<path d="M264.151 90.7168V71.7572H269.013V73.8759C270.009 72.2099 271.485 71.377 273.44 71.377C275.179 71.377 276.609 72.0198 277.732 73.3055C278.873 74.5912 279.443 76.402 279.443 78.738V78.9553C279.443 81.3094 278.873 83.1203 277.732 84.3879C276.609 85.6555 275.17 86.2893 273.413 86.2893C272.381 86.2893 271.476 86.072 270.697 85.6374C269.936 85.1846 269.375 84.5961 269.013 83.8718V90.7168H264.151ZM269.61 81.6444C270.099 82.2601 270.797 82.568 271.702 82.568C272.607 82.568 273.295 82.2601 273.766 81.6444C274.255 81.0288 274.5 80.1324 274.5 78.9553V78.738C274.5 77.5248 274.255 76.6103 273.766 75.9946C273.277 75.3608 272.589 75.0439 271.702 75.0439C270.815 75.0439 270.117 75.3608 269.61 75.9946C269.121 76.6284 268.877 77.5338 268.877 78.7109V78.9282C268.877 80.1233 269.121 81.0288 269.61 81.6444Z" fill="#006FF0"/>
<path d="M285.598 86.2893C284.203 86.2893 283.054 85.9361 282.148 85.2299C281.243 84.5237 280.79 83.4553 280.79 82.0247C280.79 78.9282 283.307 77.3799 288.341 77.3799H289.699V77.054C289.699 76.3115 289.563 75.7501 289.292 75.3699C289.038 74.9896 288.549 74.7994 287.825 74.7994C286.684 74.7994 286.041 75.3608 285.897 76.4835H281.333C281.442 74.8176 282.103 73.55 283.316 72.6808C284.529 71.8116 286.132 71.377 288.124 71.377C290.152 71.377 291.727 71.8206 292.85 72.7079C293.973 73.5771 294.534 74.9262 294.534 76.7552V85.9633H289.808V84.3064C288.939 85.6283 287.535 86.2893 285.598 86.2893ZM287.282 83.0026C287.988 83.0026 288.568 82.8215 289.02 82.4593C289.473 82.079 289.699 81.5901 289.699 80.9925V80.1233H288.423C287.427 80.1233 286.702 80.241 286.25 80.4764C285.815 80.6937 285.598 81.0921 285.598 81.6716C285.598 82.5589 286.159 83.0026 287.282 83.0026Z" fill="#006FF0"/>
<path d="M298.869 90.7168L301.232 84.5237L295.555 71.7572H300.825L303.759 79.3356L306.475 71.7572H311.12L303.514 90.7168H298.869Z" fill="#006FF0"/>
<rect x="66" y="144" width="1308" height="495" rx="8" fill="#FCFDFE"/>
<path d="M557.801 247.5L555.652 240.664H545.75L543.602 247.5H537.547L547.332 219.316H554.266L564.07 247.5H557.801ZM550.633 224.707L547.02 236.25H554.383L550.77 224.707H550.633ZM584.715 234.355H579.422C579.253 233.223 578.803 232.311 578.074 231.621C577.358 230.931 576.427 230.586 575.281 230.586C573.862 230.586 572.742 231.159 571.922 232.305C571.115 233.438 570.711 235.007 570.711 237.012C570.711 239.056 571.115 240.645 571.922 241.777C572.742 242.91 573.868 243.477 575.301 243.477C576.434 243.477 577.358 243.158 578.074 242.52C578.79 241.868 579.24 240.97 579.422 239.824H584.734C584.591 242.298 583.66 244.271 581.941 245.742C580.223 247.214 577.99 247.949 575.242 247.949C572.065 247.949 569.552 246.979 567.703 245.039C565.854 243.086 564.93 240.41 564.93 237.012C564.93 233.665 565.854 231.016 567.703 229.062C569.565 227.096 572.065 226.113 575.203 226.113C577.99 226.113 580.236 226.882 581.941 228.418C583.66 229.954 584.585 231.934 584.715 234.355ZM606.512 234.355H601.219C601.049 233.223 600.6 232.311 599.871 231.621C599.155 230.931 598.224 230.586 597.078 230.586C595.659 230.586 594.539 231.159 593.719 232.305C592.911 233.438 592.508 235.007 592.508 237.012C592.508 239.056 592.911 240.645 593.719 241.777C594.539 242.91 595.665 243.477 597.098 243.477C598.23 243.477 599.155 243.158 599.871 242.52C600.587 241.868 601.036 240.97 601.219 239.824H606.531C606.388 242.298 605.457 244.271 603.738 245.742C602.02 247.214 599.786 247.949 597.039 247.949C593.862 247.949 591.349 246.979 589.5 245.039C587.651 243.086 586.727 240.41 586.727 237.012C586.727 233.665 587.651 231.016 589.5 229.062C591.362 227.096 593.862 226.113 597 226.113C599.786 226.113 602.033 226.882 603.738 228.418C605.457 229.954 606.382 231.934 606.512 234.355ZM626.473 245.059C624.611 246.986 622.085 247.949 618.895 247.949C615.704 247.949 613.178 246.979 611.316 245.039C609.454 243.099 608.523 240.423 608.523 237.012C608.523 233.639 609.461 230.983 611.336 229.043C613.224 227.09 615.743 226.113 618.895 226.113C622.059 226.113 624.578 227.09 626.453 229.043C628.328 230.983 629.266 233.639 629.266 237.012C629.266 240.436 628.335 243.118 626.473 245.059ZM618.895 243.594C620.301 243.594 621.414 243.021 622.234 241.875C623.055 240.729 623.465 239.115 623.465 237.031C623.465 234.974 623.055 233.366 622.234 232.207C621.414 231.048 620.301 230.469 618.895 230.469C617.488 230.469 616.368 231.048 615.535 232.207C614.715 233.366 614.305 234.974 614.305 237.031C614.305 239.115 614.715 240.729 615.535 241.875C616.355 243.021 617.475 243.594 618.895 243.594ZM651.551 226.562V247.5H646.043V243.73H645.926C644.832 246.504 642.742 247.891 639.656 247.891C637.365 247.891 635.535 247.194 634.168 245.801C632.801 244.395 632.117 242.48 632.117 240.059V226.562H637.82V238.867C637.82 240.26 638.152 241.322 638.816 242.051C639.493 242.78 640.464 243.145 641.727 243.145C642.99 243.145 643.992 242.728 644.734 241.895C645.477 241.061 645.848 239.948 645.848 238.555V226.562H651.551ZM655.262 247.5V226.562H660.77V230.293H660.887C661.46 228.965 662.293 227.949 663.387 227.246C664.493 226.53 665.841 226.172 667.43 226.172C669.747 226.172 671.538 226.862 672.801 228.242C674.064 229.622 674.695 231.543 674.695 234.004V247.5H668.992V235.195C668.992 233.815 668.667 232.754 668.016 232.012C667.365 231.27 666.408 230.898 665.145 230.898C663.882 230.898 662.866 231.322 662.098 232.168C661.342 233.014 660.965 234.121 660.965 235.488V247.5H655.262ZM679.832 221.738H685.535V226.562H689.402V230.859H685.535V240.879C685.535 242.454 686.355 243.242 687.996 243.242C688.53 243.242 688.992 243.21 689.383 243.145V247.344C688.719 247.5 687.814 247.578 686.668 247.578C684.207 247.578 682.449 247.135 681.395 246.25C680.353 245.365 679.832 243.9 679.832 241.855V230.859H676.883V226.562H679.832V221.738ZM719.598 226.562L712.41 247.5H705.965L698.719 226.562H704.832L709.188 242.461H709.305L713.641 226.562H719.598ZM730.398 230.332C729.161 230.332 728.126 230.755 727.293 231.602C726.473 232.448 726.01 233.529 725.906 234.844H734.793C734.728 233.503 734.292 232.415 733.484 231.582C732.69 230.749 731.661 230.332 730.398 230.332ZM734.871 241.094H740.105C739.793 243.151 738.764 244.811 737.02 246.074C735.288 247.324 733.133 247.949 730.555 247.949C727.339 247.949 724.812 246.986 722.977 245.059C721.154 243.132 720.242 240.488 720.242 237.129C720.242 233.783 721.154 231.113 722.977 229.121C724.799 227.116 727.254 226.113 730.34 226.113C733.374 226.113 735.789 227.064 737.586 228.965C739.383 230.866 740.281 233.411 740.281 236.602V238.34H725.848V238.691C725.848 240.189 726.284 241.406 727.156 242.344C728.042 243.268 729.207 243.73 730.652 243.73C731.694 243.73 732.592 243.496 733.348 243.027C734.103 242.546 734.611 241.901 734.871 241.094ZM743.23 247.5V226.562H748.738V230.332H748.855C749.22 229.004 749.832 227.988 750.691 227.285C751.551 226.582 752.599 226.23 753.836 226.23C754.435 226.23 754.975 226.302 755.457 226.445V231.465C754.923 231.243 754.233 231.133 753.387 231.133C751.98 231.133 750.887 231.543 750.105 232.363C749.324 233.184 748.934 234.329 748.934 235.801V247.5H743.23ZM757.898 247.5V226.562H763.602V247.5H757.898ZM762.918 223.398C762.332 223.971 761.609 224.258 760.75 224.258C759.891 224.258 759.168 223.971 758.582 223.398C757.996 222.826 757.703 222.129 757.703 221.309C757.703 220.475 757.996 219.779 758.582 219.219C759.168 218.646 759.891 218.359 760.75 218.359C761.609 218.359 762.332 218.646 762.918 219.219C763.504 219.779 763.797 220.475 763.797 221.309C763.797 222.129 763.504 222.826 762.918 223.398ZM768.934 247.5V230.859H766.082V226.66H768.934V225.078C768.934 222.995 769.467 221.471 770.535 220.508C771.616 219.544 773.38 219.062 775.828 219.062C776.948 219.062 777.918 219.147 778.738 219.316V223.086C778.322 223.008 777.807 222.969 777.195 222.969C775.398 222.969 774.5 223.737 774.5 225.273V226.66H778.66V230.859H774.637V247.5H768.934ZM781.766 247.5V226.562H787.469V247.5H781.766ZM786.785 223.398C786.199 223.971 785.477 224.258 784.617 224.258C783.758 224.258 783.035 223.971 782.449 223.398C781.863 222.826 781.57 222.129 781.57 221.309C781.57 220.475 781.863 219.779 782.449 219.219C783.035 218.646 783.758 218.359 784.617 218.359C785.477 218.359 786.199 218.646 786.785 219.219C787.371 219.779 787.664 220.475 787.664 221.309C787.664 222.129 787.371 222.826 786.785 223.398ZM810.301 234.355H805.008C804.839 233.223 804.389 232.311 803.66 231.621C802.944 230.931 802.013 230.586 800.867 230.586C799.448 230.586 798.328 231.159 797.508 232.305C796.701 233.438 796.297 235.007 796.297 237.012C796.297 239.056 796.701 240.645 797.508 241.777C798.328 242.91 799.454 243.477 800.887 243.477C802.02 243.477 802.944 243.158 803.66 242.52C804.376 241.868 804.826 240.97 805.008 239.824H810.32C810.177 242.298 809.246 244.271 807.527 245.742C805.809 247.214 803.576 247.949 800.828 247.949C797.651 247.949 795.138 246.979 793.289 245.039C791.44 243.086 790.516 240.41 790.516 237.012C790.516 233.665 791.44 231.016 793.289 229.062C795.151 227.096 797.651 226.113 800.789 226.113C803.576 226.113 805.822 226.882 807.527 228.418C809.246 229.954 810.171 231.934 810.301 234.355ZM821.16 243.711C822.423 243.711 823.491 243.346 824.363 242.617C825.249 241.875 825.691 240.944 825.691 239.824V238.301L821.277 238.574C820.21 238.652 819.383 238.919 818.797 239.375C818.224 239.831 817.938 240.43 817.938 241.172C817.938 241.953 818.23 242.572 818.816 243.027C819.402 243.483 820.184 243.711 821.16 243.711ZM819.285 247.832C817.267 247.832 815.594 247.24 814.266 246.055C812.938 244.87 812.273 243.346 812.273 241.484C812.273 239.583 812.977 238.092 814.383 237.012C815.789 235.931 817.801 235.312 820.418 235.156L825.691 234.844V233.457C825.691 232.493 825.372 231.738 824.734 231.191C824.109 230.645 823.257 230.371 822.176 230.371C821.134 230.371 820.281 230.605 819.617 231.074C818.966 231.543 818.569 232.174 818.426 232.969H813.211C813.315 230.911 814.194 229.258 815.848 228.008C817.501 226.745 819.695 226.113 822.43 226.113C825.112 226.113 827.26 226.751 828.875 228.027C830.49 229.303 831.297 230.996 831.297 233.105V247.5H825.789V244.297H825.672C825.099 245.391 824.227 246.257 823.055 246.895C821.883 247.52 820.626 247.832 819.285 247.832ZM836.512 221.738H842.215V226.562H846.082V230.859H842.215V240.879C842.215 242.454 843.035 243.242 844.676 243.242C845.21 243.242 845.672 243.21 846.062 243.145V247.344C845.398 247.5 844.493 247.578 843.348 247.578C840.887 247.578 839.129 247.135 838.074 246.25C837.033 245.365 836.512 243.9 836.512 241.855V230.859H833.562V226.562H836.512V221.738ZM849.305 247.5V226.562H855.008V247.5H849.305ZM854.324 223.398C853.738 223.971 853.016 224.258 852.156 224.258C851.297 224.258 850.574 223.971 849.988 223.398C849.402 222.826 849.109 222.129 849.109 221.309C849.109 220.475 849.402 219.779 849.988 219.219C850.574 218.646 851.297 218.359 852.156 218.359C853.016 218.359 853.738 218.646 854.324 219.219C854.91 219.779 855.203 220.475 855.203 221.309C855.203 222.129 854.91 222.826 854.324 223.398ZM876.004 245.059C874.142 246.986 871.616 247.949 868.426 247.949C865.236 247.949 862.71 246.979 860.848 245.039C858.986 243.099 858.055 240.423 858.055 237.012C858.055 233.639 858.992 230.983 860.867 229.043C862.755 227.09 865.275 226.113 868.426 226.113C871.59 226.113 874.109 227.09 875.984 229.043C877.859 230.983 878.797 233.639 878.797 237.012C878.797 240.436 877.866 243.118 876.004 245.059ZM868.426 243.594C869.832 243.594 870.945 243.021 871.766 241.875C872.586 240.729 872.996 239.115 872.996 237.031C872.996 234.974 872.586 233.366 871.766 232.207C870.945 231.048 869.832 230.469 868.426 230.469C867.02 230.469 865.9 231.048 865.066 232.207C864.246 233.366 863.836 234.974 863.836 237.031C863.836 239.115 864.246 240.729 865.066 241.875C865.887 243.021 867.007 243.594 868.426 243.594ZM881.746 247.5V226.562H887.254V230.293H887.371C887.944 228.965 888.777 227.949 889.871 227.246C890.978 226.53 892.326 226.172 893.914 226.172C896.232 226.172 898.022 226.862 899.285 228.242C900.548 229.622 901.18 231.543 901.18 234.004V247.5H895.477V235.195C895.477 233.815 895.151 232.754 894.5 232.012C893.849 231.27 892.892 230.898 891.629 230.898C890.366 230.898 889.35 231.322 888.582 232.168C887.827 233.014 887.449 234.121 887.449 235.488V247.5H881.746Z" fill="#202223"/>
<path d="M435.044 288.732C432.364 288.732 430.689 286.75 430.689 283.578V283.564C430.689 280.386 432.357 278.403 435.037 278.403C437.115 278.403 438.735 279.709 439.029 281.603L439.022 281.616H437.785L437.778 281.603C437.45 280.338 436.397 279.538 435.037 279.538C433.144 279.538 431.954 281.097 431.954 283.564V283.578C431.954 286.046 433.144 287.598 435.044 287.598C436.418 287.598 437.464 286.894 437.771 285.759L437.785 285.745H439.029V285.759C438.701 287.563 437.143 288.732 435.044 288.732ZM441.012 288.5V278.205H442.201V282.238H442.311C442.68 281.459 443.37 281.001 444.457 281.001C446.111 281.001 447.034 281.979 447.034 283.729V288.5H445.845V284.016C445.845 282.689 445.298 282.054 444.122 282.054C442.946 282.054 442.201 282.847 442.201 284.139V288.5H441.012ZM452.195 288.63C450.09 288.63 448.818 287.153 448.818 284.843V284.836C448.818 282.56 450.117 281.001 452.12 281.001C454.123 281.001 455.34 282.491 455.34 284.692V285.157H450.035C450.069 286.682 450.91 287.57 452.223 287.57C453.221 287.57 453.836 287.099 454.034 286.654L454.062 286.593H455.251L455.237 286.647C454.984 287.646 453.932 288.63 452.195 288.63ZM452.113 282.061C451.02 282.061 450.186 282.806 450.056 284.207H454.13C454.007 282.751 453.2 282.061 452.113 282.061ZM460.2 288.63C458.136 288.63 456.816 287.133 456.816 284.795V284.781C456.816 282.491 458.129 281.001 460.193 281.001C461.984 281.001 463.058 282.033 463.276 283.346L463.283 283.387H462.101L462.094 283.366C461.909 282.642 461.253 282.054 460.193 282.054C458.867 282.054 458.033 283.12 458.033 284.781V284.795C458.033 286.49 458.881 287.577 460.193 287.577C461.185 287.577 461.813 287.14 462.087 286.319L462.101 286.278L463.276 286.271L463.263 286.347C462.962 287.68 461.971 288.63 460.2 288.63ZM465.088 288.5V278.205H466.277V284.351H466.387L469.572 281.131H471.015L467.802 284.228L471.227 288.5H469.729L466.968 285.034L466.277 285.704V288.5H465.088ZM477.188 291.084C477.03 291.084 476.825 291.07 476.661 291.043V290.065C476.805 290.093 476.989 290.1 477.153 290.1C477.83 290.1 478.24 289.792 478.507 288.944L478.644 288.507L475.916 281.131H477.188L479.211 287.194H479.32L481.337 281.131H482.588L479.71 288.951C479.102 290.605 478.493 291.084 477.188 291.084ZM486.915 288.63C484.816 288.63 483.518 287.181 483.518 284.822V284.809C483.518 282.443 484.816 281.001 486.915 281.001C489.014 281.001 490.312 282.443 490.312 284.809V284.822C490.312 287.181 489.014 288.63 486.915 288.63ZM486.915 287.577C488.31 287.577 489.096 286.559 489.096 284.822V284.809C489.096 283.065 488.31 282.054 486.915 282.054C485.521 282.054 484.734 283.065 484.734 284.809V284.822C484.734 286.559 485.521 287.577 486.915 287.577ZM494.626 288.63C492.951 288.63 492.09 287.646 492.09 285.902V281.131H493.279V285.615C493.279 286.941 493.758 287.577 494.934 287.577C496.232 287.577 496.923 286.784 496.923 285.492V281.131H498.112V288.5H496.923V287.399H496.813C496.451 288.186 495.706 288.63 494.626 288.63ZM500.334 288.5V281.131H501.523V282.225H501.633C501.913 281.452 502.604 281.001 503.602 281.001C503.827 281.001 504.08 281.028 504.196 281.049V282.204C503.95 282.163 503.725 282.136 503.465 282.136C502.33 282.136 501.523 282.854 501.523 283.934V288.5H500.334ZM512.611 288.63C510.506 288.63 509.234 287.153 509.234 284.843V284.836C509.234 282.56 510.533 281.001 512.536 281.001C514.539 281.001 515.756 282.491 515.756 284.692V285.157H510.451C510.485 286.682 511.326 287.57 512.639 287.57C513.637 287.57 514.252 287.099 514.45 286.654L514.478 286.593H515.667L515.653 286.647C515.4 287.646 514.348 288.63 512.611 288.63ZM512.529 282.061C511.436 282.061 510.602 282.806 510.472 284.207H514.546C514.423 282.751 513.616 282.061 512.529 282.061ZM517.602 288.5V281.131H518.791V282.252H518.9C519.229 281.459 519.926 281.001 520.89 281.001C521.888 281.001 522.585 281.527 522.927 282.293H523.036C523.433 281.514 524.273 281.001 525.292 281.001C526.796 281.001 527.637 281.862 527.637 283.407V288.5H526.447V283.681C526.447 282.594 525.948 282.054 524.909 282.054C523.884 282.054 523.207 282.826 523.207 283.763V288.5H522.018V283.496C522.018 282.621 521.416 282.054 520.486 282.054C519.522 282.054 518.791 282.895 518.791 283.934V288.5H517.602ZM531.807 288.63C530.405 288.63 529.346 287.782 529.346 286.442V286.429C529.346 285.116 530.316 284.357 532.032 284.255L534.145 284.125V283.455C534.145 282.546 533.591 282.054 532.49 282.054C531.608 282.054 531.027 282.382 530.836 282.956L530.829 282.977H529.64L529.646 282.936C529.838 281.78 530.959 281.001 532.531 281.001C534.329 281.001 535.334 281.924 535.334 283.455V288.5H534.145V287.413H534.035C533.57 288.199 532.798 288.63 531.807 288.63ZM530.562 286.415C530.562 287.16 531.198 287.598 532.053 287.598C533.263 287.598 534.145 286.805 534.145 285.752V285.082L532.176 285.205C531.055 285.273 530.562 285.67 530.562 286.401V286.415ZM538.137 279.709C537.686 279.709 537.316 279.34 537.316 278.889C537.316 278.438 537.686 278.068 538.137 278.068C538.588 278.068 538.957 278.438 538.957 278.889C538.957 279.34 538.588 279.709 538.137 279.709ZM537.535 288.5V281.131H538.725V288.5H537.535ZM541.035 288.5V278.205H542.225V288.5H541.035ZM549.074 279.709C548.623 279.709 548.254 279.34 548.254 278.889C548.254 278.438 548.623 278.068 549.074 278.068C549.525 278.068 549.895 278.438 549.895 278.889C549.895 279.34 549.525 279.709 549.074 279.709ZM548.473 288.5V281.131H549.662V288.5H548.473ZM551.904 288.5V281.131H553.094V282.238H553.203C553.572 281.459 554.263 281.001 555.35 281.001C557.004 281.001 557.927 281.979 557.927 283.729V288.5H556.737V284.016C556.737 282.689 556.19 282.054 555.015 282.054C553.839 282.054 553.094 282.847 553.094 284.139V288.5H551.904ZM563.744 288.63C562.719 288.63 561.898 288.145 561.447 287.324H561.338V288.5H560.148V278.205H561.338V282.293H561.447C561.851 281.507 562.732 281.001 563.744 281.001C565.617 281.001 566.834 282.498 566.834 284.809V284.822C566.834 287.119 565.61 288.63 563.744 288.63ZM563.471 287.577C564.817 287.577 565.617 286.538 565.617 284.822V284.809C565.617 283.093 564.817 282.054 563.471 282.054C562.131 282.054 561.311 283.106 561.311 284.809V284.822C561.311 286.524 562.131 287.577 563.471 287.577ZM571.708 288.63C569.609 288.63 568.311 287.181 568.311 284.822V284.809C568.311 282.443 569.609 281.001 571.708 281.001C573.807 281.001 575.105 282.443 575.105 284.809V284.822C575.105 287.181 573.807 288.63 571.708 288.63ZM571.708 287.577C573.103 287.577 573.889 286.559 573.889 284.822V284.809C573.889 283.065 573.103 282.054 571.708 282.054C570.313 282.054 569.527 283.065 569.527 284.809V284.822C569.527 286.559 570.313 287.577 571.708 287.577ZM576.021 288.5L578.544 284.815L575.994 281.131H577.396L579.146 283.872H579.255L580.984 281.131H582.317L579.815 284.768L582.352 288.5H580.957L579.214 285.718H579.104L577.354 288.5H576.021ZM589.912 288.63C588.511 288.63 587.451 287.782 587.451 286.442V286.429C587.451 285.116 588.422 284.357 590.138 284.255L592.25 284.125V283.455C592.25 282.546 591.696 282.054 590.596 282.054C589.714 282.054 589.133 282.382 588.941 282.956L588.935 282.977H587.745L587.752 282.936C587.943 281.78 589.064 281.001 590.637 281.001C592.435 281.001 593.439 281.924 593.439 283.455V288.5H592.25V287.413H592.141C591.676 288.199 590.903 288.63 589.912 288.63ZM588.668 286.415C588.668 287.16 589.304 287.598 590.158 287.598C591.368 287.598 592.25 286.805 592.25 285.752V285.082L590.281 285.205C589.16 285.273 588.668 285.67 588.668 286.401V286.415ZM595.613 288.5V281.131H596.803V282.238H596.912C597.281 281.459 597.972 281.001 599.059 281.001C600.713 281.001 601.636 281.979 601.636 283.729V288.5H600.446V284.016C600.446 282.689 599.899 282.054 598.724 282.054C597.548 282.054 596.803 282.847 596.803 284.139V288.5H595.613ZM606.51 288.63C604.644 288.63 603.42 287.119 603.42 284.822V284.809C603.42 282.498 604.637 281.001 606.51 281.001C607.521 281.001 608.403 281.507 608.807 282.293H608.916V278.205H610.105V288.5H608.916V287.324H608.807C608.355 288.145 607.535 288.63 606.51 288.63ZM606.783 287.577C608.123 287.577 608.943 286.524 608.943 284.822V284.809C608.943 283.106 608.123 282.054 606.783 282.054C605.437 282.054 604.637 283.093 604.637 284.809V284.822C604.637 286.538 605.437 287.577 606.783 287.577ZM619.334 288.63C617.229 288.63 615.957 287.153 615.957 284.843V284.836C615.957 282.56 617.256 281.001 619.259 281.001C621.262 281.001 622.479 282.491 622.479 284.692V285.157H617.174C617.208 286.682 618.049 287.57 619.361 287.57C620.359 287.57 620.975 287.099 621.173 286.654L621.2 286.593H622.39L622.376 286.647C622.123 287.646 621.07 288.63 619.334 288.63ZM619.252 282.061C618.158 282.061 617.324 282.806 617.194 284.207H621.269C621.146 282.751 620.339 282.061 619.252 282.061ZM624.324 288.5V281.131H625.514V282.238H625.623C625.992 281.459 626.683 281.001 627.77 281.001C629.424 281.001 630.347 281.979 630.347 283.729V288.5H629.157V284.016C629.157 282.689 628.61 282.054 627.435 282.054C626.259 282.054 625.514 282.847 625.514 284.139V288.5H624.324ZM635.118 288.555C633.601 288.555 632.965 287.994 632.965 286.586V282.115H631.803V281.131H632.965V279.224H634.195V281.131H635.809V282.115H634.195V286.285C634.195 287.153 634.496 287.502 635.262 287.502C635.474 287.502 635.59 287.495 635.809 287.475V288.486C635.576 288.527 635.351 288.555 635.118 288.555ZM640.484 288.63C638.379 288.63 637.107 287.153 637.107 284.843V284.836C637.107 282.56 638.406 281.001 640.409 281.001C642.412 281.001 643.629 282.491 643.629 284.692V285.157H638.324C638.358 286.682 639.199 287.57 640.512 287.57C641.51 287.57 642.125 287.099 642.323 286.654L642.351 286.593H643.54L643.526 286.647C643.273 287.646 642.221 288.63 640.484 288.63ZM640.402 282.061C639.309 282.061 638.475 282.806 638.345 284.207H642.419C642.296 282.751 641.489 282.061 640.402 282.061ZM645.475 288.5V281.131H646.664V282.225H646.773C647.054 281.452 647.744 281.001 648.742 281.001C648.968 281.001 649.221 281.028 649.337 281.049V282.204C649.091 282.163 648.865 282.136 648.605 282.136C647.471 282.136 646.664 282.854 646.664 283.934V288.5H645.475ZM657.362 288.555C655.845 288.555 655.209 287.994 655.209 286.586V282.115H654.047V281.131H655.209V279.224H656.439V281.131H658.053V282.115H656.439V286.285C656.439 287.153 656.74 287.502 657.506 287.502C657.718 287.502 657.834 287.495 658.053 287.475V288.486C657.82 288.527 657.595 288.555 657.362 288.555ZM659.898 288.5V278.205H661.088V282.238H661.197C661.566 281.459 662.257 281.001 663.344 281.001C664.998 281.001 665.921 281.979 665.921 283.729V288.5H664.731V284.016C664.731 282.689 664.185 282.054 663.009 282.054C661.833 282.054 661.088 282.847 661.088 284.139V288.5H659.898ZM671.082 288.63C668.977 288.63 667.705 287.153 667.705 284.843V284.836C667.705 282.56 669.004 281.001 671.007 281.001C673.01 281.001 674.227 282.491 674.227 284.692V285.157H668.922C668.956 286.682 669.797 287.57 671.109 287.57C672.107 287.57 672.723 287.099 672.921 286.654L672.948 286.593H674.138L674.124 286.647C673.871 287.646 672.818 288.63 671.082 288.63ZM671 282.061C669.906 282.061 669.072 282.806 668.942 284.207H673.017C672.894 282.751 672.087 282.061 671 282.061ZM683.024 288.63C680.96 288.63 679.641 287.133 679.641 284.795V284.781C679.641 282.491 680.953 281.001 683.018 281.001C684.809 281.001 685.882 282.033 686.101 283.346L686.107 283.387H684.925L684.918 283.366C684.733 282.642 684.077 282.054 683.018 282.054C681.691 282.054 680.857 283.12 680.857 284.781V284.795C680.857 286.49 681.705 287.577 683.018 287.577C684.009 287.577 684.638 287.14 684.911 286.319L684.925 286.278L686.101 286.271L686.087 286.347C685.786 287.68 684.795 288.63 683.024 288.63ZM690.872 288.63C688.773 288.63 687.475 287.181 687.475 284.822V284.809C687.475 282.443 688.773 281.001 690.872 281.001C692.971 281.001 694.27 282.443 694.27 284.809V284.822C694.27 287.181 692.971 288.63 690.872 288.63ZM690.872 287.577C692.267 287.577 693.053 286.559 693.053 284.822V284.809C693.053 283.065 692.267 282.054 690.872 282.054C689.478 282.054 688.691 283.065 688.691 284.809V284.822C688.691 286.559 689.478 287.577 690.872 287.577ZM698.836 288.63C696.97 288.63 695.746 287.119 695.746 284.822V284.809C695.746 282.498 696.963 281.001 698.836 281.001C699.848 281.001 700.729 281.507 701.133 282.293H701.242V278.205H702.432V288.5H701.242V287.324H701.133C700.682 288.145 699.861 288.63 698.836 288.63ZM699.109 287.577C700.449 287.577 701.27 286.524 701.27 284.822V284.809C701.27 283.106 700.449 282.054 699.109 282.054C697.763 282.054 696.963 283.093 696.963 284.809V284.822C696.963 286.538 697.763 287.577 699.109 287.577ZM707.723 288.63C705.617 288.63 704.346 287.153 704.346 284.843V284.836C704.346 282.56 705.645 281.001 707.647 281.001C709.65 281.001 710.867 282.491 710.867 284.692V285.157H705.562C705.597 286.682 706.438 287.57 707.75 287.57C708.748 287.57 709.363 287.099 709.562 286.654L709.589 286.593H710.778L710.765 286.647C710.512 287.646 709.459 288.63 707.723 288.63ZM707.641 282.061C706.547 282.061 705.713 282.806 705.583 284.207H709.657C709.534 282.751 708.728 282.061 707.641 282.061ZM717.279 291.084C717.122 291.084 716.917 291.07 716.753 291.043V290.065C716.896 290.093 717.081 290.1 717.245 290.1C717.922 290.1 718.332 289.792 718.599 288.944L718.735 288.507L716.008 281.131H717.279L719.303 287.194H719.412L721.429 281.131H722.68L719.802 288.951C719.193 290.605 718.585 291.084 717.279 291.084ZM727.007 288.63C724.908 288.63 723.609 287.181 723.609 284.822V284.809C723.609 282.443 724.908 281.001 727.007 281.001C729.105 281.001 730.404 282.443 730.404 284.809V284.822C730.404 287.181 729.105 288.63 727.007 288.63ZM727.007 287.577C728.401 287.577 729.188 286.559 729.188 284.822V284.809C729.188 283.065 728.401 282.054 727.007 282.054C725.612 282.054 724.826 283.065 724.826 284.809V284.822C724.826 286.559 725.612 287.577 727.007 287.577ZM734.718 288.63C733.043 288.63 732.182 287.646 732.182 285.902V281.131H733.371V285.615C733.371 286.941 733.85 287.577 735.025 287.577C736.324 287.577 737.015 286.784 737.015 285.492V281.131H738.204V288.5H737.015V287.399H736.905C736.543 288.186 735.798 288.63 734.718 288.63ZM744.363 288.5V281.131H745.553V282.225H745.662C745.942 281.452 746.633 281.001 747.631 281.001C747.856 281.001 748.109 281.028 748.226 281.049V282.204C747.979 282.163 747.754 282.136 747.494 282.136C746.359 282.136 745.553 282.854 745.553 283.934V288.5H744.363ZM752.498 288.63C750.393 288.63 749.121 287.153 749.121 284.843V284.836C749.121 282.56 750.42 281.001 752.423 281.001C754.426 281.001 755.643 282.491 755.643 284.692V285.157H750.338C750.372 286.682 751.213 287.57 752.525 287.57C753.523 287.57 754.139 287.099 754.337 286.654L754.364 286.593H755.554L755.54 286.647C755.287 287.646 754.234 288.63 752.498 288.63ZM752.416 282.061C751.322 282.061 750.488 282.806 750.358 284.207H754.433C754.31 282.751 753.503 282.061 752.416 282.061ZM760.503 288.63C758.438 288.63 757.119 287.133 757.119 284.795V284.781C757.119 282.491 758.432 281.001 760.496 281.001C762.287 281.001 763.36 282.033 763.579 283.346L763.586 283.387H762.403L762.396 283.366C762.212 282.642 761.556 282.054 760.496 282.054C759.17 282.054 758.336 283.12 758.336 284.781V284.795C758.336 286.49 759.184 287.577 760.496 287.577C761.487 287.577 762.116 287.14 762.39 286.319L762.403 286.278L763.579 286.271L763.565 286.347C763.265 287.68 762.273 288.63 760.503 288.63ZM768.33 288.63C766.225 288.63 764.953 287.153 764.953 284.843V284.836C764.953 282.56 766.252 281.001 768.255 281.001C770.258 281.001 771.475 282.491 771.475 284.692V285.157H766.17C766.204 286.682 767.045 287.57 768.357 287.57C769.355 287.57 769.971 287.099 770.169 286.654L770.196 286.593H771.386L771.372 286.647C771.119 287.646 770.066 288.63 768.33 288.63ZM768.248 282.061C767.154 282.061 766.32 282.806 766.19 284.207H770.265C770.142 282.751 769.335 282.061 768.248 282.061ZM773.949 279.709C773.498 279.709 773.129 279.34 773.129 278.889C773.129 278.438 773.498 278.068 773.949 278.068C774.4 278.068 774.77 278.438 774.77 278.889C774.77 279.34 774.4 279.709 773.949 279.709ZM773.348 288.5V281.131H774.537V288.5H773.348ZM778.864 288.5L776.137 281.131H777.395L779.411 287.201H779.521L781.537 281.131H782.795L780.067 288.5H778.864ZM787.102 288.63C784.996 288.63 783.725 287.153 783.725 284.843V284.836C783.725 282.56 785.023 281.001 787.026 281.001C789.029 281.001 790.246 282.491 790.246 284.692V285.157H784.941C784.976 286.682 785.816 287.57 787.129 287.57C788.127 287.57 788.742 287.099 788.94 286.654L788.968 286.593H790.157L790.144 286.647C789.891 287.646 788.838 288.63 787.102 288.63ZM787.02 282.061C785.926 282.061 785.092 282.806 784.962 284.207H789.036C788.913 282.751 788.106 282.061 787.02 282.061ZM794.812 288.63C792.946 288.63 791.723 287.119 791.723 284.822V284.809C791.723 282.498 792.939 281.001 794.812 281.001C795.824 281.001 796.706 281.507 797.109 282.293H797.219V278.205H798.408V288.5H797.219V287.324H797.109C796.658 288.145 795.838 288.63 794.812 288.63ZM795.086 287.577C796.426 287.577 797.246 286.524 797.246 284.822V284.809C797.246 283.106 796.426 282.054 795.086 282.054C793.739 282.054 792.939 283.093 792.939 284.809V284.822C792.939 286.538 793.739 287.577 795.086 287.577ZM808.293 288.63C807.268 288.63 806.447 288.145 805.996 287.324H805.887V288.5H804.697V278.205H805.887V282.293H805.996C806.399 281.507 807.281 281.001 808.293 281.001C810.166 281.001 811.383 282.498 811.383 284.809V284.822C811.383 287.119 810.159 288.63 808.293 288.63ZM808.02 287.577C809.366 287.577 810.166 286.538 810.166 284.822V284.809C810.166 283.093 809.366 282.054 808.02 282.054C806.68 282.054 805.859 283.106 805.859 284.809V284.822C805.859 286.524 806.68 287.577 808.02 287.577ZM816.236 288.63C814.131 288.63 812.859 287.153 812.859 284.843V284.836C812.859 282.56 814.158 281.001 816.161 281.001C818.164 281.001 819.381 282.491 819.381 284.692V285.157H814.076C814.11 286.682 814.951 287.57 816.264 287.57C817.262 287.57 817.877 287.099 818.075 286.654L818.103 286.593H819.292L819.278 286.647C819.025 287.646 817.973 288.63 816.236 288.63ZM816.154 282.061C815.061 282.061 814.227 282.806 814.097 284.207H818.171C818.048 282.751 817.241 282.061 816.154 282.061ZM821.295 288.5V278.205H822.484V288.5H821.295ZM827.796 288.63C825.697 288.63 824.398 287.181 824.398 284.822V284.809C824.398 282.443 825.697 281.001 827.796 281.001C829.895 281.001 831.193 282.443 831.193 284.809V284.822C831.193 287.181 829.895 288.63 827.796 288.63ZM827.796 287.577C829.19 287.577 829.977 286.559 829.977 284.822V284.809C829.977 283.065 829.19 282.054 827.796 282.054C826.401 282.054 825.615 283.065 825.615 284.809V284.822C825.615 286.559 826.401 287.577 827.796 287.577ZM834.188 288.5L832.123 281.131H833.312L834.762 287.023H834.871L836.519 281.131H837.646L839.294 287.023H839.403L840.853 281.131H842.035L839.971 288.5H838.774L837.127 282.799H837.018L835.377 288.5H834.188ZM850.163 288.555C848.646 288.555 848.01 287.994 848.01 286.586V282.115H846.848V281.131H848.01V279.224H849.24V281.131H850.854V282.115H849.24V286.285C849.24 287.153 849.541 287.502 850.307 287.502C850.519 287.502 850.635 287.495 850.854 287.475V288.486C850.621 288.527 850.396 288.555 850.163 288.555ZM855.55 288.63C853.451 288.63 852.152 287.181 852.152 284.822V284.809C852.152 282.443 853.451 281.001 855.55 281.001C857.648 281.001 858.947 282.443 858.947 284.809V284.822C858.947 287.181 857.648 288.63 855.55 288.63ZM855.55 287.577C856.944 287.577 857.73 286.559 857.73 284.822V284.809C857.73 283.065 856.944 282.054 855.55 282.054C854.155 282.054 853.369 283.065 853.369 284.809V284.822C853.369 286.559 854.155 287.577 855.55 287.577ZM867.745 288.63C865.681 288.63 864.361 287.133 864.361 284.795V284.781C864.361 282.491 865.674 281.001 867.738 281.001C869.529 281.001 870.603 282.033 870.821 283.346L870.828 283.387H869.646L869.639 283.366C869.454 282.642 868.798 282.054 867.738 282.054C866.412 282.054 865.578 283.12 865.578 284.781V284.795C865.578 286.49 866.426 287.577 867.738 287.577C868.729 287.577 869.358 287.14 869.632 286.319L869.646 286.278L870.821 286.271L870.808 286.347C870.507 287.68 869.516 288.63 867.745 288.63ZM875.593 288.63C873.494 288.63 872.195 287.181 872.195 284.822V284.809C872.195 282.443 873.494 281.001 875.593 281.001C877.691 281.001 878.99 282.443 878.99 284.809V284.822C878.99 287.181 877.691 288.63 875.593 288.63ZM875.593 287.577C876.987 287.577 877.773 286.559 877.773 284.822V284.809C877.773 283.065 876.987 282.054 875.593 282.054C874.198 282.054 873.412 283.065 873.412 284.809V284.822C873.412 286.559 874.198 287.577 875.593 287.577ZM880.836 288.5V281.131H882.025V282.252H882.135C882.463 281.459 883.16 281.001 884.124 281.001C885.122 281.001 885.819 281.527 886.161 282.293H886.271C886.667 281.514 887.508 281.001 888.526 281.001C890.03 281.001 890.871 281.862 890.871 283.407V288.5H889.682V283.681C889.682 282.594 889.183 282.054 888.144 282.054C887.118 282.054 886.441 282.826 886.441 283.763V288.5H885.252V283.496C885.252 282.621 884.65 282.054 883.721 282.054C882.757 282.054 882.025 282.895 882.025 283.934V288.5H880.836ZM893.018 290.961V281.131H894.207V282.307H894.316C894.768 281.486 895.588 281.001 896.613 281.001C898.479 281.001 899.703 282.512 899.703 284.809V284.822C899.703 287.133 898.486 288.63 896.613 288.63C895.602 288.63 894.72 288.124 894.316 287.338H894.207V290.961H893.018ZM896.34 287.577C897.687 287.577 898.486 286.538 898.486 284.822V284.809C898.486 283.093 897.687 282.054 896.34 282.054C895 282.054 894.18 283.106 894.18 284.809V284.822C894.18 286.524 895 287.577 896.34 287.577ZM901.631 288.5V278.205H902.82V288.5H901.631ZM908.111 288.63C906.006 288.63 904.734 287.153 904.734 284.843V284.836C904.734 282.56 906.033 281.001 908.036 281.001C910.039 281.001 911.256 282.491 911.256 284.692V285.157H905.951C905.985 286.682 906.826 287.57 908.139 287.57C909.137 287.57 909.752 287.099 909.95 286.654L909.978 286.593H911.167L911.153 286.647C910.9 287.646 909.848 288.63 908.111 288.63ZM908.029 282.061C906.936 282.061 906.102 282.806 905.972 284.207H910.046C909.923 282.751 909.116 282.061 908.029 282.061ZM915.72 288.555C914.202 288.555 913.566 287.994 913.566 286.586V282.115H912.404V281.131H913.566V279.224H914.797V281.131H916.41V282.115H914.797V286.285C914.797 287.153 915.098 287.502 915.863 287.502C916.075 287.502 916.191 287.495 916.41 287.475V288.486C916.178 288.527 915.952 288.555 915.72 288.555ZM921.086 288.63C918.98 288.63 917.709 287.153 917.709 284.843V284.836C917.709 282.56 919.008 281.001 921.011 281.001C923.014 281.001 924.23 282.491 924.23 284.692V285.157H918.926C918.96 286.682 919.801 287.57 921.113 287.57C922.111 287.57 922.727 287.099 922.925 286.654L922.952 286.593H924.142L924.128 286.647C923.875 287.646 922.822 288.63 921.086 288.63ZM921.004 282.061C919.91 282.061 919.076 282.806 918.946 284.207H923.021C922.897 282.751 922.091 282.061 921.004 282.061ZM930.643 291.084C930.485 291.084 930.28 291.07 930.116 291.043V290.065C930.26 290.093 930.444 290.1 930.608 290.1C931.285 290.1 931.695 289.792 931.962 288.944L932.099 288.507L929.371 281.131H930.643L932.666 287.194H932.775L934.792 281.131H936.043L933.165 288.951C932.557 290.605 931.948 291.084 930.643 291.084ZM940.37 288.63C938.271 288.63 936.973 287.181 936.973 284.822V284.809C936.973 282.443 938.271 281.001 940.37 281.001C942.469 281.001 943.768 282.443 943.768 284.809V284.822C943.768 287.181 942.469 288.63 940.37 288.63ZM940.37 287.577C941.765 287.577 942.551 286.559 942.551 284.822V284.809C942.551 283.065 941.765 282.054 940.37 282.054C938.976 282.054 938.189 283.065 938.189 284.809V284.822C938.189 286.559 938.976 287.577 940.37 287.577ZM948.081 288.63C946.406 288.63 945.545 287.646 945.545 285.902V281.131H946.734V285.615C946.734 286.941 947.213 287.577 948.389 287.577C949.688 287.577 950.378 286.784 950.378 285.492V281.131H951.567V288.5H950.378V287.399H950.269C949.906 288.186 949.161 288.63 948.081 288.63ZM953.789 288.5V281.131H954.979V282.225H955.088C955.368 281.452 956.059 281.001 957.057 281.001C957.282 281.001 957.535 281.028 957.651 281.049V282.204C957.405 282.163 957.18 282.136 956.92 282.136C955.785 282.136 954.979 282.854 954.979 283.934V288.5H953.789ZM965.588 288.63C963.947 288.63 962.819 287.837 962.683 286.62H963.899C964.098 287.235 964.686 287.639 965.629 287.639C966.62 287.639 967.324 287.167 967.324 286.497V286.483C967.324 285.984 966.948 285.636 966.039 285.417L964.897 285.144C963.517 284.815 962.895 284.214 962.895 283.154V283.147C962.895 281.924 964.07 281.001 965.636 281.001C967.181 281.001 968.254 281.773 968.418 282.977H967.249C967.092 282.396 966.518 281.992 965.629 281.992C964.754 281.992 964.111 282.443 964.111 283.093V283.106C964.111 283.605 964.48 283.92 965.349 284.132L966.483 284.405C967.871 284.74 968.541 285.342 968.541 286.395V286.408C968.541 287.721 967.263 288.63 965.588 288.63ZM971.016 279.709C970.564 279.709 970.195 279.34 970.195 278.889C970.195 278.438 970.564 278.068 971.016 278.068C971.467 278.068 971.836 278.438 971.836 278.889C971.836 279.34 971.467 279.709 971.016 279.709ZM970.414 288.5V281.131H971.604V288.5H970.414ZM976.881 291.098C975.104 291.098 973.969 290.298 973.784 289.088L973.798 289.081H975.028L975.035 289.088C975.165 289.648 975.821 290.045 976.881 290.045C978.2 290.045 978.986 289.423 978.986 288.336V286.846H978.877C978.412 287.659 977.578 288.117 976.566 288.117C974.659 288.117 973.477 286.641 973.477 284.576V284.562C973.477 282.498 974.666 281.001 976.594 281.001C977.633 281.001 978.439 281.514 978.891 282.348H978.973V281.131H980.162V288.397C980.162 290.045 978.891 291.098 976.881 291.098ZM976.826 287.064C978.193 287.064 979.014 286.039 979.014 284.576V284.562C979.014 283.1 978.187 282.054 976.826 282.054C975.459 282.054 974.693 283.1 974.693 284.562V284.576C974.693 286.039 975.459 287.064 976.826 287.064ZM982.377 288.5V281.131H983.566V282.238H983.676C984.045 281.459 984.735 281.001 985.822 281.001C987.477 281.001 988.399 281.979 988.399 283.729V288.5H987.21V284.016C987.21 282.689 986.663 282.054 985.487 282.054C984.312 282.054 983.566 282.847 983.566 284.139V288.5H982.377ZM993.021 288.63C991.346 288.63 990.484 287.646 990.484 285.902V281.131H991.674V285.615C991.674 286.941 992.152 287.577 993.328 287.577C994.627 287.577 995.317 286.784 995.317 285.492V281.131H996.507V288.5H995.317V287.399H995.208C994.846 288.186 994.101 288.63 993.021 288.63ZM998.729 290.961V281.131H999.918V282.307H1000.03C1000.48 281.486 1001.3 281.001 1002.32 281.001C1004.19 281.001 1005.41 282.512 1005.41 284.809V284.822C1005.41 287.133 1004.2 288.63 1002.32 288.63C1001.31 288.63 1000.43 288.124 1000.03 287.338H999.918V290.961H998.729ZM1002.05 287.577C1003.4 287.577 1004.2 286.538 1004.2 284.822V284.809C1004.2 283.093 1003.4 282.054 1002.05 282.054C1000.71 282.054 999.891 283.106 999.891 284.809V284.822C999.891 286.524 1000.71 287.577 1002.05 287.577ZM1008.11 288.568C1007.62 288.568 1007.22 288.165 1007.22 287.68C1007.22 287.188 1007.62 286.791 1008.11 286.791C1008.6 286.791 1009 287.188 1009 287.68C1009 288.165 1008.6 288.568 1008.11 288.568ZM543.954 308.5V298.636H547.721C549.621 298.636 550.865 299.798 550.865 301.568V301.582C550.865 302.949 550.12 304.016 548.883 304.405L551.166 308.5H549.724L547.611 304.597H545.185V308.5H543.954ZM545.185 303.503H547.611C548.876 303.503 549.594 302.826 549.594 301.623V301.609C549.594 300.434 548.828 299.729 547.557 299.729H545.185V303.503ZM555.753 308.63C553.647 308.63 552.376 307.153 552.376 304.843V304.836C552.376 302.56 553.675 301.001 555.678 301.001C557.681 301.001 558.897 302.491 558.897 304.692V305.157H553.593C553.627 306.682 554.468 307.57 555.78 307.57C556.778 307.57 557.394 307.099 557.592 306.654L557.619 306.593H558.809L558.795 306.647C558.542 307.646 557.489 308.63 555.753 308.63ZM555.671 302.061C554.577 302.061 553.743 302.806 553.613 304.207H557.688C557.564 302.751 556.758 302.061 555.671 302.061ZM560.743 308.5V301.131H561.933V302.252H562.042C562.37 301.459 563.067 301.001 564.031 301.001C565.029 301.001 565.727 301.527 566.068 302.293H566.178C566.574 301.514 567.415 301.001 568.434 301.001C569.938 301.001 570.778 301.862 570.778 303.407V308.5H569.589V303.681C569.589 302.594 569.09 302.054 568.051 302.054C567.025 302.054 566.349 302.826 566.349 303.763V308.5H565.159V303.496C565.159 302.621 564.558 302.054 563.628 302.054C562.664 302.054 561.933 302.895 561.933 303.934V308.5H560.743ZM575.933 308.63C573.827 308.63 572.556 307.153 572.556 304.843V304.836C572.556 302.56 573.854 301.001 575.857 301.001C577.86 301.001 579.077 302.491 579.077 304.692V305.157H573.772C573.807 306.682 574.647 307.57 575.96 307.57C576.958 307.57 577.573 307.099 577.771 306.654L577.799 306.593H578.988L578.975 306.647C578.722 307.646 577.669 308.63 575.933 308.63ZM575.851 302.061C574.757 302.061 573.923 302.806 573.793 304.207H577.867C577.744 302.751 576.938 302.061 575.851 302.061ZM580.923 308.5V301.131H582.112V302.252H582.222C582.55 301.459 583.247 301.001 584.211 301.001C585.209 301.001 585.906 301.527 586.248 302.293H586.357C586.754 301.514 587.595 301.001 588.613 301.001C590.117 301.001 590.958 301.862 590.958 303.407V308.5H589.769V303.681C589.769 302.594 589.27 302.054 588.23 302.054C587.205 302.054 586.528 302.826 586.528 303.763V308.5H585.339V303.496C585.339 302.621 584.737 302.054 583.808 302.054C582.844 302.054 582.112 302.895 582.112 303.934V308.5H580.923ZM596.769 308.63C595.743 308.63 594.923 308.145 594.472 307.324H594.362V308.5H593.173V298.205H594.362V302.293H594.472C594.875 301.507 595.757 301.001 596.769 301.001C598.642 301.001 599.858 302.498 599.858 304.809V304.822C599.858 307.119 598.635 308.63 596.769 308.63ZM596.495 307.577C597.842 307.577 598.642 306.538 598.642 304.822V304.809C598.642 303.093 597.842 302.054 596.495 302.054C595.155 302.054 594.335 303.106 594.335 304.809V304.822C594.335 306.524 595.155 307.577 596.495 307.577ZM604.712 308.63C602.606 308.63 601.335 307.153 601.335 304.843V304.836C601.335 302.56 602.634 301.001 604.637 301.001C606.64 301.001 607.856 302.491 607.856 304.692V305.157H602.552C602.586 306.682 603.427 307.57 604.739 307.57C605.737 307.57 606.353 307.099 606.551 306.654L606.578 306.593H607.768L607.754 306.647C607.501 307.646 606.448 308.63 604.712 308.63ZM604.63 302.061C603.536 302.061 602.702 302.806 602.572 304.207H606.646C606.523 302.751 605.717 302.061 604.63 302.061ZM609.702 308.5V301.131H610.892V302.225H611.001C611.281 301.452 611.972 301.001 612.97 301.001C613.195 301.001 613.448 301.028 613.564 301.049V302.204C613.318 302.163 613.093 302.136 612.833 302.136C611.698 302.136 610.892 302.854 610.892 303.934V308.5H609.702ZM621.59 308.555C620.072 308.555 619.437 307.994 619.437 306.586V302.115H618.274V301.131H619.437V299.224H620.667V301.131H622.28V302.115H620.667V306.285C620.667 307.153 620.968 307.502 621.733 307.502C621.945 307.502 622.062 307.495 622.28 307.475V308.486C622.048 308.527 621.822 308.555 621.59 308.555ZM626.977 308.63C624.878 308.63 623.579 307.181 623.579 304.822V304.809C623.579 302.443 624.878 301.001 626.977 301.001C629.075 301.001 630.374 302.443 630.374 304.809V304.822C630.374 307.181 629.075 308.63 626.977 308.63ZM626.977 307.577C628.371 307.577 629.157 306.559 629.157 304.822V304.809C629.157 303.065 628.371 302.054 626.977 302.054C625.582 302.054 624.796 303.065 624.796 304.809V304.822C624.796 306.559 625.582 307.577 626.977 307.577ZM639.172 308.63C637.107 308.63 635.788 307.133 635.788 304.795V304.781C635.788 302.491 637.101 301.001 639.165 301.001C640.956 301.001 642.029 302.033 642.248 303.346L642.255 303.387H641.072L641.065 303.366C640.881 302.642 640.225 302.054 639.165 302.054C637.839 302.054 637.005 303.12 637.005 304.781V304.795C637.005 306.49 637.853 307.577 639.165 307.577C640.156 307.577 640.785 307.14 641.059 306.319L641.072 306.278L642.248 306.271L642.234 306.347C641.934 307.68 640.942 308.63 639.172 308.63ZM644.06 308.5V298.205H645.249V302.238H645.358C645.728 301.459 646.418 301.001 647.505 301.001C649.159 301.001 650.082 301.979 650.082 303.729V308.5H648.893V304.016C648.893 302.689 648.346 302.054 647.17 302.054C645.994 302.054 645.249 302.847 645.249 304.139V308.5H644.06ZM655.243 308.63C653.138 308.63 651.866 307.153 651.866 304.843V304.836C651.866 302.56 653.165 301.001 655.168 301.001C657.171 301.001 658.388 302.491 658.388 304.692V305.157H653.083C653.117 306.682 653.958 307.57 655.271 307.57C656.269 307.57 656.884 307.099 657.082 306.654L657.109 306.593H658.299L658.285 306.647C658.032 307.646 656.979 308.63 655.243 308.63ZM655.161 302.061C654.067 302.061 653.233 302.806 653.104 304.207H657.178C657.055 302.751 656.248 302.061 655.161 302.061ZM663.248 308.63C661.184 308.63 659.864 307.133 659.864 304.795V304.781C659.864 302.491 661.177 301.001 663.241 301.001C665.032 301.001 666.105 302.033 666.324 303.346L666.331 303.387H665.148L665.142 303.366C664.957 302.642 664.301 302.054 663.241 302.054C661.915 302.054 661.081 303.12 661.081 304.781V304.795C661.081 306.49 661.929 307.577 663.241 307.577C664.232 307.577 664.861 307.14 665.135 306.319L665.148 306.278L666.324 306.271L666.311 306.347C666.01 307.68 665.019 308.63 663.248 308.63ZM668.136 308.5V298.205H669.325V304.351H669.435L672.62 301.131H674.062L670.85 304.228L674.274 308.5H672.777L670.016 305.034L669.325 305.704V308.5H668.136ZM680.235 311.084C680.078 311.084 679.873 311.07 679.709 311.043V310.065C679.853 310.093 680.037 310.1 680.201 310.1C680.878 310.1 681.288 309.792 681.555 308.944L681.691 308.507L678.964 301.131H680.235L682.259 307.194H682.368L684.385 301.131H685.636L682.758 308.951C682.149 310.605 681.541 311.084 680.235 311.084ZM689.963 308.63C687.864 308.63 686.565 307.181 686.565 304.822V304.809C686.565 302.443 687.864 301.001 689.963 301.001C692.062 301.001 693.36 302.443 693.36 304.809V304.822C693.36 307.181 692.062 308.63 689.963 308.63ZM689.963 307.577C691.357 307.577 692.144 306.559 692.144 304.822V304.809C692.144 303.065 691.357 302.054 689.963 302.054C688.568 302.054 687.782 303.065 687.782 304.809V304.822C687.782 306.559 688.568 307.577 689.963 307.577ZM697.674 308.63C695.999 308.63 695.138 307.646 695.138 305.902V301.131H696.327V305.615C696.327 306.941 696.806 307.577 697.981 307.577C699.28 307.577 699.971 306.784 699.971 305.492V301.131H701.16V308.5H699.971V307.399H699.861C699.499 308.186 698.754 308.63 697.674 308.63ZM703.382 308.5V301.131H704.571V302.225H704.681C704.961 301.452 705.651 301.001 706.649 301.001C706.875 301.001 707.128 301.028 707.244 301.049V302.204C706.998 302.163 706.772 302.136 706.513 302.136C705.378 302.136 704.571 302.854 704.571 303.934V308.5H703.382ZM715.181 308.63C713.54 308.63 712.412 307.837 712.275 306.62H713.492C713.69 307.235 714.278 307.639 715.222 307.639C716.213 307.639 716.917 307.167 716.917 306.497V306.483C716.917 305.984 716.541 305.636 715.632 305.417L714.49 305.144C713.109 304.815 712.487 304.214 712.487 303.154V303.147C712.487 301.924 713.663 301.001 715.229 301.001C716.773 301.001 717.847 301.773 718.011 302.977H716.842C716.685 302.396 716.11 301.992 715.222 301.992C714.347 301.992 713.704 302.443 713.704 303.093V303.106C713.704 303.605 714.073 303.92 714.941 304.132L716.076 304.405C717.464 304.74 718.134 305.342 718.134 306.395V306.408C718.134 307.721 716.855 308.63 715.181 308.63ZM719.979 310.961V301.131H721.169V302.307H721.278C721.729 301.486 722.55 301.001 723.575 301.001C725.441 301.001 726.665 302.512 726.665 304.809V304.822C726.665 307.133 725.448 308.63 723.575 308.63C722.563 308.63 721.682 308.124 721.278 307.338H721.169V310.961H719.979ZM723.302 307.577C724.648 307.577 725.448 306.538 725.448 304.822V304.809C725.448 303.093 724.648 302.054 723.302 302.054C721.962 302.054 721.142 303.106 721.142 304.809V304.822C721.142 306.524 721.962 307.577 723.302 307.577ZM730.548 308.63C729.146 308.63 728.087 307.782 728.087 306.442V306.429C728.087 305.116 729.058 304.357 730.773 304.255L732.886 304.125V303.455C732.886 302.546 732.332 302.054 731.231 302.054C730.35 302.054 729.769 302.382 729.577 302.956L729.57 302.977H728.381L728.388 302.936C728.579 301.78 729.7 301.001 731.272 301.001C733.07 301.001 734.075 301.924 734.075 303.455V308.5H732.886V307.413H732.776C732.312 308.199 731.539 308.63 730.548 308.63ZM729.304 306.415C729.304 307.16 729.939 307.598 730.794 307.598C732.004 307.598 732.886 306.805 732.886 305.752V305.082L730.917 305.205C729.796 305.273 729.304 305.67 729.304 306.401V306.415ZM736.249 308.5V301.131H737.438V302.252H737.548C737.876 301.459 738.573 301.001 739.537 301.001C740.535 301.001 741.232 301.527 741.574 302.293H741.684C742.08 301.514 742.921 301.001 743.939 301.001C745.443 301.001 746.284 301.862 746.284 303.407V308.5H745.095V303.681C745.095 302.594 744.596 302.054 743.557 302.054C742.531 302.054 741.854 302.826 741.854 303.763V308.5H740.665V303.496C740.665 302.621 740.063 302.054 739.134 302.054C738.17 302.054 737.438 302.895 737.438 303.934V308.5H736.249ZM755.396 308.63C753.298 308.63 751.999 307.181 751.999 304.822V304.809C751.999 302.443 753.298 301.001 755.396 301.001C757.495 301.001 758.794 302.443 758.794 304.809V304.822C758.794 307.181 757.495 308.63 755.396 308.63ZM755.396 307.577C756.791 307.577 757.577 306.559 757.577 304.822V304.809C757.577 303.065 756.791 302.054 755.396 302.054C754.002 302.054 753.216 303.065 753.216 304.809V304.822C753.216 306.559 754.002 307.577 755.396 307.577ZM760.64 308.5V301.131H761.829V302.225H761.938C762.219 301.452 762.909 301.001 763.907 301.001C764.133 301.001 764.386 301.028 764.502 301.049V302.204C764.256 302.163 764.03 302.136 763.771 302.136C762.636 302.136 761.829 302.854 761.829 303.934V308.5H760.64ZM769.909 310.961V301.131H771.099V302.307H771.208C771.659 301.486 772.479 301.001 773.505 301.001C775.371 301.001 776.595 302.512 776.595 304.809V304.822C776.595 307.133 775.378 308.63 773.505 308.63C772.493 308.63 771.611 308.124 771.208 307.338H771.099V310.961H769.909ZM773.231 307.577C774.578 307.577 775.378 306.538 775.378 304.822V304.809C775.378 303.093 774.578 302.054 773.231 302.054C771.892 302.054 771.071 303.106 771.071 304.809V304.822C771.071 306.524 771.892 307.577 773.231 307.577ZM778.454 308.5V301.131H779.644V302.225H779.753C780.033 301.452 780.724 301.001 781.722 301.001C781.947 301.001 782.2 301.028 782.316 301.049V302.204C782.07 302.163 781.845 302.136 781.585 302.136C780.45 302.136 779.644 302.854 779.644 303.934V308.5H778.454ZM786.609 308.63C784.511 308.63 783.212 307.181 783.212 304.822V304.809C783.212 302.443 784.511 301.001 786.609 301.001C788.708 301.001 790.007 302.443 790.007 304.809V304.822C790.007 307.181 788.708 308.63 786.609 308.63ZM786.609 307.577C788.004 307.577 788.79 306.559 788.79 304.822V304.809C788.79 303.065 788.004 302.054 786.609 302.054C785.215 302.054 784.429 303.065 784.429 304.809V304.822C784.429 306.559 785.215 307.577 786.609 307.577ZM791.853 308.5V301.131H793.042V302.252H793.151C793.479 301.459 794.177 301.001 795.141 301.001C796.139 301.001 796.836 301.527 797.178 302.293H797.287C797.684 301.514 798.524 301.001 799.543 301.001C801.047 301.001 801.888 301.862 801.888 303.407V308.5H800.698V303.681C800.698 302.594 800.199 302.054 799.16 302.054C798.135 302.054 797.458 302.826 797.458 303.763V308.5H796.269V303.496C796.269 302.621 795.667 302.054 794.737 302.054C793.773 302.054 793.042 302.895 793.042 303.934V308.5H791.853ZM807.062 308.63C804.964 308.63 803.665 307.181 803.665 304.822V304.809C803.665 302.443 804.964 301.001 807.062 301.001C809.161 301.001 810.46 302.443 810.46 304.809V304.822C810.46 307.181 809.161 308.63 807.062 308.63ZM807.062 307.577C808.457 307.577 809.243 306.559 809.243 304.822V304.809C809.243 303.065 808.457 302.054 807.062 302.054C805.668 302.054 804.882 303.065 804.882 304.809V304.822C804.882 306.559 805.668 307.577 807.062 307.577ZM814.924 308.555C813.406 308.555 812.771 307.994 812.771 306.586V302.115H811.608V301.131H812.771V299.224H814.001V301.131H815.614V302.115H814.001V306.285C814.001 307.153 814.302 307.502 815.067 307.502C815.279 307.502 815.396 307.495 815.614 307.475V308.486C815.382 308.527 815.156 308.555 814.924 308.555ZM818.021 299.709C817.569 299.709 817.2 299.34 817.2 298.889C817.2 298.438 817.569 298.068 818.021 298.068C818.472 298.068 818.841 298.438 818.841 298.889C818.841 299.34 818.472 299.709 818.021 299.709ZM817.419 308.5V301.131H818.608V308.5H817.419ZM823.879 308.63C821.78 308.63 820.481 307.181 820.481 304.822V304.809C820.481 302.443 821.78 301.001 823.879 301.001C825.978 301.001 827.276 302.443 827.276 304.809V304.822C827.276 307.181 825.978 308.63 823.879 308.63ZM823.879 307.577C825.273 307.577 826.06 306.559 826.06 304.822V304.809C826.06 303.065 825.273 302.054 823.879 302.054C822.484 302.054 821.698 303.065 821.698 304.809V304.822C821.698 306.559 822.484 307.577 823.879 307.577ZM829.122 308.5V301.131H830.312V302.238H830.421C830.79 301.459 831.48 301.001 832.567 301.001C834.222 301.001 835.145 301.979 835.145 303.729V308.5H833.955V304.016C833.955 302.689 833.408 302.054 832.232 302.054C831.057 302.054 830.312 302.847 830.312 304.139V308.5H829.122ZM839.827 308.63C838.187 308.63 837.059 307.837 836.922 306.62H838.139C838.337 307.235 838.925 307.639 839.868 307.639C840.859 307.639 841.563 307.167 841.563 306.497V306.483C841.563 305.984 841.188 305.636 840.278 305.417L839.137 305.144C837.756 304.815 837.134 304.214 837.134 303.154V303.147C837.134 301.924 838.31 301.001 839.875 301.001C841.42 301.001 842.493 301.773 842.657 302.977H841.488C841.331 302.396 840.757 301.992 839.868 301.992C838.993 301.992 838.351 302.443 838.351 303.093V303.106C838.351 303.605 838.72 303.92 839.588 304.132L840.723 304.405C842.11 304.74 842.78 305.342 842.78 306.395V306.408C842.78 307.721 841.502 308.63 839.827 308.63ZM849.056 308.5V302.115H847.832V301.131H849.056V300.311C849.056 298.841 849.794 298.137 851.195 298.137C851.482 298.137 851.742 298.157 851.988 298.205V299.155C851.845 299.128 851.646 299.121 851.435 299.121C850.587 299.121 850.245 299.538 850.245 300.345V301.131H851.92V302.115H850.245V308.5H849.056ZM856.35 308.63C854.251 308.63 852.952 307.181 852.952 304.822V304.809C852.952 302.443 854.251 301.001 856.35 301.001C858.448 301.001 859.747 302.443 859.747 304.809V304.822C859.747 307.181 858.448 308.63 856.35 308.63ZM856.35 307.577C857.744 307.577 858.53 306.559 858.53 304.822V304.809C858.53 303.065 857.744 302.054 856.35 302.054C854.955 302.054 854.169 303.065 854.169 304.809V304.822C854.169 306.559 854.955 307.577 856.35 307.577ZM861.661 308.5V298.205H862.851V308.5H861.661ZM867.854 308.63C865.988 308.63 864.765 307.119 864.765 304.822V304.809C864.765 302.498 865.981 301.001 867.854 301.001C868.866 301.001 869.748 301.507 870.151 302.293H870.261V298.205H871.45V308.5H870.261V307.324H870.151C869.7 308.145 868.88 308.63 867.854 308.63ZM868.128 307.577C869.468 307.577 870.288 306.524 870.288 304.822V304.809C870.288 303.106 869.468 302.054 868.128 302.054C866.781 302.054 865.981 303.093 865.981 304.809V304.822C865.981 306.538 866.781 307.577 868.128 307.577ZM876.741 308.63C874.636 308.63 873.364 307.153 873.364 304.843V304.836C873.364 302.56 874.663 301.001 876.666 301.001C878.669 301.001 879.886 302.491 879.886 304.692V305.157H874.581C874.615 306.682 875.456 307.57 876.769 307.57C877.767 307.57 878.382 307.099 878.58 306.654L878.607 306.593H879.797L879.783 306.647C879.53 307.646 878.478 308.63 876.741 308.63ZM876.659 302.061C875.565 302.061 874.731 302.806 874.602 304.207H878.676C878.553 302.751 877.746 302.061 876.659 302.061ZM881.731 308.5V301.131H882.921V302.225H883.03C883.311 301.452 884.001 301.001 884.999 301.001C885.225 301.001 885.478 301.028 885.594 301.049V302.204C885.348 302.163 885.122 302.136 884.862 302.136C883.728 302.136 882.921 302.854 882.921 303.934V308.5H881.731ZM889.456 308.63C887.815 308.63 886.688 307.837 886.551 306.62H887.768C887.966 307.235 888.554 307.639 889.497 307.639C890.488 307.639 891.192 307.167 891.192 306.497V306.483C891.192 305.984 890.816 305.636 889.907 305.417L888.766 305.144C887.385 304.815 886.763 304.214 886.763 303.154V303.147C886.763 301.924 887.938 301.001 889.504 301.001C891.049 301.001 892.122 301.773 892.286 302.977H891.117C890.96 302.396 890.386 301.992 889.497 301.992C888.622 301.992 887.979 302.443 887.979 303.093V303.106C887.979 303.605 888.349 303.92 889.217 304.132L890.352 304.405C891.739 304.74 892.409 305.342 892.409 306.395V306.408C892.409 307.721 891.131 308.63 889.456 308.63ZM895.226 308.568C894.74 308.568 894.337 308.165 894.337 307.68C894.337 307.188 894.74 306.791 895.226 306.791C895.718 306.791 896.114 307.188 896.114 307.68C896.114 308.165 895.718 308.568 895.226 308.568Z" fill="#202223"/>
<path d="M628.758 360.5V350.636H632.477C634.329 350.636 635.642 351.914 635.642 353.787V353.801C635.642 355.674 634.329 356.979 632.477 356.979H629.988V360.5H628.758ZM632.162 351.729H629.988V355.886H632.162C633.57 355.886 634.384 355.113 634.384 353.814V353.801C634.384 352.502 633.57 351.729 632.162 351.729ZM637.576 360.5V350.205H638.766V360.5H637.576ZM644.057 360.63C641.951 360.63 640.68 359.153 640.68 356.843V356.836C640.68 354.56 641.979 353.001 643.981 353.001C645.984 353.001 647.201 354.491 647.201 356.692V357.157H641.896C641.931 358.682 642.771 359.57 644.084 359.57C645.082 359.57 645.697 359.099 645.896 358.654L645.923 358.593H647.112L647.099 358.647C646.846 359.646 645.793 360.63 644.057 360.63ZM643.975 354.061C642.881 354.061 642.047 354.806 641.917 356.207H645.991C645.868 354.751 645.062 354.061 643.975 354.061ZM651.07 360.63C649.669 360.63 648.609 359.782 648.609 358.442V358.429C648.609 357.116 649.58 356.357 651.296 356.255L653.408 356.125V355.455C653.408 354.546 652.854 354.054 651.754 354.054C650.872 354.054 650.291 354.382 650.1 354.956L650.093 354.977H648.903L648.91 354.936C649.102 353.78 650.223 353.001 651.795 353.001C653.593 353.001 654.598 353.924 654.598 355.455V360.5H653.408V359.413H653.299C652.834 360.199 652.062 360.63 651.07 360.63ZM649.826 358.415C649.826 359.16 650.462 359.598 651.316 359.598C652.526 359.598 653.408 358.805 653.408 357.752V357.082L651.439 357.205C650.318 357.273 649.826 357.67 649.826 358.401V358.415ZM659.301 360.63C657.66 360.63 656.532 359.837 656.396 358.62H657.612C657.811 359.235 658.398 359.639 659.342 359.639C660.333 359.639 661.037 359.167 661.037 358.497V358.483C661.037 357.984 660.661 357.636 659.752 357.417L658.61 357.144C657.229 356.815 656.607 356.214 656.607 355.154V355.147C656.607 353.924 657.783 353.001 659.349 353.001C660.894 353.001 661.967 353.773 662.131 354.977H660.962C660.805 354.396 660.23 353.992 659.342 353.992C658.467 353.992 657.824 354.443 657.824 355.093V355.106C657.824 355.605 658.193 355.92 659.062 356.132L660.196 356.405C661.584 356.74 662.254 357.342 662.254 358.395V358.408C662.254 359.721 660.976 360.63 659.301 360.63ZM667.107 360.63C665.002 360.63 663.73 359.153 663.73 356.843V356.836C663.73 354.56 665.029 353.001 667.032 353.001C669.035 353.001 670.252 354.491 670.252 356.692V357.157H664.947C664.981 358.682 665.822 359.57 667.135 359.57C668.133 359.57 668.748 359.099 668.946 358.654L668.974 358.593H670.163L670.149 358.647C669.896 359.646 668.844 360.63 667.107 360.63ZM667.025 354.061C665.932 354.061 665.098 354.806 664.968 356.207H669.042C668.919 354.751 668.112 354.061 667.025 354.061ZM679.043 360.63C676.938 360.63 675.666 359.153 675.666 356.843V356.836C675.666 354.56 676.965 353.001 678.968 353.001C680.971 353.001 682.188 354.491 682.188 356.692V357.157H676.883C676.917 358.682 677.758 359.57 679.07 359.57C680.068 359.57 680.684 359.099 680.882 358.654L680.909 358.593H682.099L682.085 358.647C681.832 359.646 680.779 360.63 679.043 360.63ZM678.961 354.061C677.867 354.061 677.033 354.806 676.903 356.207H680.978C680.854 354.751 680.048 354.061 678.961 354.061ZM684.033 360.5V353.131H685.223V354.238H685.332C685.701 353.459 686.392 353.001 687.479 353.001C689.133 353.001 690.056 353.979 690.056 355.729V360.5H688.866V356.016C688.866 354.689 688.319 354.054 687.144 354.054C685.968 354.054 685.223 354.847 685.223 356.139V360.5H684.033ZM694.827 360.555C693.31 360.555 692.674 359.994 692.674 358.586V354.115H691.512V353.131H692.674V351.224H693.904V353.131H695.518V354.115H693.904V358.285C693.904 359.153 694.205 359.502 694.971 359.502C695.183 359.502 695.299 359.495 695.518 359.475V360.486C695.285 360.527 695.06 360.555 694.827 360.555ZM700.193 360.63C698.088 360.63 696.816 359.153 696.816 356.843V356.836C696.816 354.56 698.115 353.001 700.118 353.001C702.121 353.001 703.338 354.491 703.338 356.692V357.157H698.033C698.067 358.682 698.908 359.57 700.221 359.57C701.219 359.57 701.834 359.099 702.032 358.654L702.06 358.593H703.249L703.235 358.647C702.982 359.646 701.93 360.63 700.193 360.63ZM700.111 354.061C699.018 354.061 698.184 354.806 698.054 356.207H702.128C702.005 354.751 701.198 354.061 700.111 354.061ZM705.184 360.5V353.131H706.373V354.225H706.482C706.763 353.452 707.453 353.001 708.451 353.001C708.677 353.001 708.93 353.028 709.046 353.049V354.204C708.8 354.163 708.574 354.136 708.314 354.136C707.18 354.136 706.373 354.854 706.373 355.934V360.5H705.184ZM715.082 363.084C714.925 363.084 714.72 363.07 714.556 363.043V362.065C714.699 362.093 714.884 362.1 715.048 362.1C715.725 362.1 716.135 361.792 716.401 360.944L716.538 360.507L713.811 353.131H715.082L717.105 359.194H717.215L719.231 353.131H720.482L717.604 360.951C716.996 362.605 716.388 363.084 715.082 363.084ZM724.81 360.63C722.711 360.63 721.412 359.181 721.412 356.822V356.809C721.412 354.443 722.711 353.001 724.81 353.001C726.908 353.001 728.207 354.443 728.207 356.809V356.822C728.207 359.181 726.908 360.63 724.81 360.63ZM724.81 359.577C726.204 359.577 726.99 358.559 726.99 356.822V356.809C726.99 355.065 726.204 354.054 724.81 354.054C723.415 354.054 722.629 355.065 722.629 356.809V356.822C722.629 358.559 723.415 359.577 724.81 359.577ZM732.521 360.63C730.846 360.63 729.984 359.646 729.984 357.902V353.131H731.174V357.615C731.174 358.941 731.652 359.577 732.828 359.577C734.127 359.577 734.817 358.784 734.817 357.492V353.131H736.007V360.5H734.817V359.399H734.708C734.346 360.186 733.601 360.63 732.521 360.63ZM738.229 360.5V353.131H739.418V354.225H739.527C739.808 353.452 740.498 353.001 741.496 353.001C741.722 353.001 741.975 353.028 742.091 353.049V354.204C741.845 354.163 741.619 354.136 741.359 354.136C740.225 354.136 739.418 354.854 739.418 355.934V360.5H738.229ZM750.513 360.63C748.448 360.63 747.129 359.133 747.129 356.795V356.781C747.129 354.491 748.441 353.001 750.506 353.001C752.297 353.001 753.37 354.033 753.589 355.346L753.596 355.387H752.413L752.406 355.366C752.222 354.642 751.565 354.054 750.506 354.054C749.18 354.054 748.346 355.12 748.346 356.781V356.795C748.346 358.49 749.193 359.577 750.506 359.577C751.497 359.577 752.126 359.14 752.399 358.319L752.413 358.278L753.589 358.271L753.575 358.347C753.274 359.68 752.283 360.63 750.513 360.63ZM758.36 360.63C756.262 360.63 754.963 359.181 754.963 356.822V356.809C754.963 354.443 756.262 353.001 758.36 353.001C760.459 353.001 761.758 354.443 761.758 356.809V356.822C761.758 359.181 760.459 360.63 758.36 360.63ZM758.36 359.577C759.755 359.577 760.541 358.559 760.541 356.822V356.809C760.541 355.065 759.755 354.054 758.36 354.054C756.966 354.054 756.18 355.065 756.18 356.809V356.822C756.18 358.559 756.966 359.577 758.36 359.577ZM766.324 360.63C764.458 360.63 763.234 359.119 763.234 356.822V356.809C763.234 354.498 764.451 353.001 766.324 353.001C767.336 353.001 768.218 353.507 768.621 354.293H768.73V350.205H769.92V360.5H768.73V359.324H768.621C768.17 360.145 767.35 360.63 766.324 360.63ZM766.598 359.577C767.938 359.577 768.758 358.524 768.758 356.822V356.809C768.758 355.106 767.938 354.054 766.598 354.054C765.251 354.054 764.451 355.093 764.451 356.809V356.822C764.451 358.538 765.251 359.577 766.598 359.577ZM775.211 360.63C773.105 360.63 771.834 359.153 771.834 356.843V356.836C771.834 354.56 773.133 353.001 775.136 353.001C777.139 353.001 778.355 354.491 778.355 356.692V357.157H773.051C773.085 358.682 773.926 359.57 775.238 359.57C776.236 359.57 776.852 359.099 777.05 358.654L777.077 358.593H778.267L778.253 358.647C778 359.646 776.947 360.63 775.211 360.63ZM775.129 354.061C774.035 354.061 773.201 354.806 773.071 356.207H777.146C777.022 354.751 776.216 354.061 775.129 354.061ZM784.207 360.5V350.205H785.396V354.238H785.506C785.875 353.459 786.565 353.001 787.652 353.001C789.307 353.001 790.229 353.979 790.229 355.729V360.5H789.04V356.016C789.04 354.689 788.493 354.054 787.317 354.054C786.142 354.054 785.396 354.847 785.396 356.139V360.5H784.207ZM795.391 360.63C793.285 360.63 792.014 359.153 792.014 356.843V356.836C792.014 354.56 793.312 353.001 795.315 353.001C797.318 353.001 798.535 354.491 798.535 356.692V357.157H793.23C793.265 358.682 794.105 359.57 795.418 359.57C796.416 359.57 797.031 359.099 797.229 358.654L797.257 358.593H798.446L798.433 358.647C798.18 359.646 797.127 360.63 795.391 360.63ZM795.309 354.061C794.215 354.061 793.381 354.806 793.251 356.207H797.325C797.202 354.751 796.396 354.061 795.309 354.061ZM800.381 360.5V353.131H801.57V354.225H801.68C801.96 353.452 802.65 353.001 803.648 353.001C803.874 353.001 804.127 353.028 804.243 353.049V354.204C803.997 354.163 803.771 354.136 803.512 354.136C802.377 354.136 801.57 354.854 801.57 355.934V360.5H800.381ZM808.516 360.63C806.41 360.63 805.139 359.153 805.139 356.843V356.836C805.139 354.56 806.438 353.001 808.44 353.001C810.443 353.001 811.66 354.491 811.66 356.692V357.157H806.355C806.39 358.682 807.23 359.57 808.543 359.57C809.541 359.57 810.156 359.099 810.354 358.654L810.382 358.593H811.571L811.558 358.647C811.305 359.646 810.252 360.63 808.516 360.63ZM808.434 354.061C807.34 354.061 806.506 354.806 806.376 356.207H810.45C810.327 354.751 809.521 354.061 808.434 354.061Z" fill="#202223"/>
<rect x="537" y="390.5" width="46" height="46" rx="7" stroke="#8C9196" stroke-width="2"/>
<rect x="601" y="390.5" width="46" height="46" rx="7" stroke="#8C9196" stroke-width="2"/>
<rect x="665" y="390.5" width="46" height="46" rx="7" stroke="#8C9196" stroke-width="2"/>
<rect x="729" y="390.5" width="46" height="46" rx="7" stroke="#8C9196" stroke-width="2"/>
<rect x="793" y="390.5" width="46" height="46" rx="7" stroke="#8C9196" stroke-width="2"/>
<rect x="857" y="390.5" width="46" height="46" rx="7" stroke="#8C9196" stroke-width="2"/>
<rect x="655.5" y="478" width="129" height="35" rx="3.5" fill="#FAFBFB"/>
<rect x="655.5" y="478" width="129" height="35" rx="3.5" stroke="#D2D5D8"/>
<path d="M675.095 500.5L671.581 490.636H673.242L675.881 498.654H675.997L678.636 490.636H680.297L676.783 500.5H675.095ZM684.228 500.644C682.054 500.644 680.741 499.16 680.741 496.809V496.802C680.741 494.484 682.081 492.933 684.152 492.933C686.224 492.933 687.495 494.43 687.495 496.658V497.178H682.231C682.259 498.6 683.038 499.427 684.262 499.427C685.212 499.427 685.779 498.955 685.957 498.572L685.984 498.518L687.413 498.511L687.399 498.572C687.153 499.55 686.128 500.644 684.228 500.644ZM684.159 494.149C683.147 494.149 682.382 494.84 682.252 496.118H686.025C685.909 494.792 685.164 494.149 684.159 494.149ZM689.259 500.5V493.076H690.742V494.197H690.852C691.118 493.411 691.809 492.946 692.8 492.946C693.039 492.946 693.299 492.98 693.449 493.015V494.382C693.183 494.327 692.93 494.293 692.649 494.293C691.515 494.293 690.742 494.99 690.742 496.063V500.5H689.259ZM695.637 491.75C695.124 491.75 694.707 491.333 694.707 490.827C694.707 490.314 695.124 489.897 695.637 489.897C696.143 489.897 696.566 490.314 696.566 490.827C696.566 491.333 696.143 491.75 695.637 491.75ZM694.892 500.5V493.076H696.368V500.5H694.892ZM699.055 500.5V494.245H697.831V493.076H699.055V492.297C699.055 490.82 699.807 490.096 701.352 490.096C701.687 490.096 701.974 490.123 702.227 490.164V491.251C702.09 491.23 701.892 491.217 701.659 491.217C700.839 491.217 700.518 491.613 700.518 492.365V493.076H702.165V494.245H700.531V500.5H699.055ZM704.558 503.111C704.373 503.111 704.154 503.098 703.963 503.077V501.908C704.106 501.929 704.291 501.936 704.462 501.936C705.152 501.936 705.569 501.642 705.788 500.89L705.897 500.507L703.204 493.076H704.804L706.663 499.01H706.793L708.646 493.076H710.204L707.442 500.787C706.813 502.558 706.062 503.111 704.558 503.111ZM717.573 500.623C716.158 500.623 715.112 499.762 715.112 498.415V498.401C715.112 497.075 716.11 496.303 717.881 496.193L719.891 496.077V495.421C719.891 494.607 719.378 494.156 718.373 494.156C717.553 494.156 717.013 494.457 716.835 494.983L716.828 495.011H715.399L715.406 494.963C715.584 493.746 716.753 492.933 718.441 492.933C720.308 492.933 721.36 493.862 721.36 495.421V500.5H719.891V499.447H719.774C719.337 500.199 718.558 500.623 717.573 500.623ZM716.589 498.354C716.589 499.037 717.17 499.44 717.97 499.44C719.077 499.44 719.891 498.716 719.891 497.759V497.123L718.079 497.239C717.054 497.301 716.589 497.67 716.589 498.34V498.354ZM726.576 500.644C724.409 500.644 723.083 499.167 723.083 496.768V496.754C723.083 494.402 724.402 492.933 726.569 492.933C728.436 492.933 729.55 493.985 729.755 495.428V495.462L728.333 495.469L728.326 495.448C728.162 494.717 727.561 494.17 726.576 494.17C725.339 494.17 724.594 495.154 724.594 496.754V496.768C724.594 498.408 725.353 499.406 726.576 499.406C727.506 499.406 728.08 498.982 728.319 498.183L728.333 498.148H729.755L729.741 498.21C729.475 499.652 728.415 500.644 726.576 500.644ZM734.561 500.644C732.394 500.644 731.067 499.167 731.067 496.768V496.754C731.067 494.402 732.387 492.933 734.554 492.933C736.42 492.933 737.534 493.985 737.739 495.428V495.462L736.317 495.469L736.311 495.448C736.146 494.717 735.545 494.17 734.561 494.17C733.323 494.17 732.578 495.154 732.578 496.754V496.768C732.578 498.408 733.337 499.406 734.561 499.406C735.49 499.406 736.064 498.982 736.304 498.183L736.317 498.148H737.739L737.726 498.21C737.459 499.652 736.399 500.644 734.561 500.644ZM742.565 500.644C740.385 500.644 739.052 499.188 739.052 496.795V496.781C739.052 494.396 740.392 492.933 742.565 492.933C744.732 492.933 746.072 494.389 746.072 496.781V496.795C746.072 499.188 744.739 500.644 742.565 500.644ZM742.565 499.406C743.837 499.406 744.562 498.436 744.562 496.795V496.781C744.562 495.134 743.837 494.17 742.565 494.17C741.287 494.17 740.569 495.134 740.569 496.781V496.795C740.569 498.442 741.287 499.406 742.565 499.406ZM750.317 500.644C748.643 500.644 747.774 499.639 747.774 497.882V493.076H749.258V497.533C749.258 498.764 749.709 499.372 750.796 499.372C751.985 499.372 752.621 498.627 752.621 497.431V493.076H754.098V500.5H752.621V499.379H752.505C752.149 500.179 751.397 500.644 750.317 500.644ZM756.237 500.5V493.076H757.721V494.204H757.83C758.192 493.411 758.903 492.933 759.983 492.933C761.645 492.933 762.561 493.924 762.561 495.694V500.5H761.084V496.043C761.084 494.812 760.571 494.204 759.484 494.204C758.397 494.204 757.721 494.949 757.721 496.146V500.5H756.237ZM767.435 500.548C765.801 500.548 765.131 499.974 765.131 498.545V494.245H763.969V493.076H765.131V491.203H766.642V493.076H768.234V494.245H766.642V498.189C766.642 498.989 766.942 499.317 767.674 499.317C767.899 499.317 768.029 499.311 768.234 499.29V500.473C767.995 500.514 767.722 500.548 767.435 500.548Z" fill="#8C9196"/>
<path d="M590.438 569.5V558.227H594.305C597.648 558.227 599.625 560.312 599.625 563.852V563.867C599.625 567.414 597.656 569.5 594.305 569.5H590.438ZM591.844 568.234H594.211C596.727 568.234 598.188 566.625 598.188 563.883V563.867C598.188 561.117 596.711 559.492 594.211 559.492H591.844V568.234ZM602.609 559.453C602.094 559.453 601.672 559.031 601.672 558.516C601.672 558 602.094 557.578 602.609 557.578C603.125 557.578 603.547 558 603.547 558.516C603.547 559.031 603.125 559.453 602.609 559.453ZM601.922 569.5V561.078H603.281V569.5H601.922ZM608.953 569.648C606.82 569.648 605.422 567.922 605.422 565.297V565.281C605.422 562.641 606.812 560.93 608.953 560.93C610.109 560.93 611.117 561.508 611.578 562.406H611.703V557.734H613.062V569.5H611.703V568.156H611.578C611.062 569.094 610.125 569.648 608.953 569.648ZM609.266 568.445C610.797 568.445 611.734 567.242 611.734 565.297V565.281C611.734 563.336 610.797 562.133 609.266 562.133C607.727 562.133 606.812 563.32 606.812 565.281V565.297C606.812 567.258 607.727 568.445 609.266 568.445ZM615.672 569.5V561.078H617.031V562.344H617.156C617.578 561.453 618.367 560.93 619.609 560.93C621.5 560.93 622.555 562.047 622.555 564.047V569.5H621.195V564.375C621.195 562.859 620.57 562.133 619.227 562.133C617.883 562.133 617.031 563.039 617.031 564.516V569.5H615.672ZM625.008 562.672L625.688 558.227H627.242L626.016 562.672H625.008ZM632.758 569.562C631.023 569.562 630.297 568.922 630.297 567.312V562.203H628.969V561.078H630.297V558.898H631.703V561.078H633.547V562.203H631.703V566.969C631.703 567.961 632.047 568.359 632.922 568.359C633.164 568.359 633.297 568.352 633.547 568.328V569.484C633.281 569.531 633.023 569.562 632.758 569.562ZM643.547 572.469C641.516 572.469 640.219 571.555 640.008 570.172L640.023 570.164H641.43L641.438 570.172C641.586 570.812 642.336 571.266 643.547 571.266C645.055 571.266 645.953 570.555 645.953 569.312V567.609H645.828C645.297 568.539 644.344 569.062 643.188 569.062C641.008 569.062 639.656 567.375 639.656 565.016V565C639.656 562.641 641.016 560.93 643.219 560.93C644.406 560.93 645.328 561.516 645.844 562.469H645.938V561.078H647.297V569.383C647.297 571.266 645.844 572.469 643.547 572.469ZM643.484 567.859C645.047 567.859 645.984 566.688 645.984 565.016V565C645.984 563.328 645.039 562.133 643.484 562.133C641.922 562.133 641.047 563.328 641.047 565V565.016C641.047 566.688 641.922 567.859 643.484 567.859ZM653.266 569.648C650.859 569.648 649.406 567.961 649.406 565.32V565.312C649.406 562.711 650.891 560.93 653.18 560.93C655.469 560.93 656.859 562.633 656.859 565.148V565.68H650.797C650.836 567.422 651.797 568.438 653.297 568.438C654.438 568.438 655.141 567.898 655.367 567.391L655.398 567.32H656.758L656.742 567.383C656.453 568.523 655.25 569.648 653.266 569.648ZM653.172 562.141C651.922 562.141 650.969 562.992 650.82 564.594H655.477C655.336 562.93 654.414 562.141 653.172 562.141ZM661.961 569.562C660.227 569.562 659.5 568.922 659.5 567.312V562.203H658.172V561.078H659.5V558.898H660.906V561.078H662.75V562.203H660.906V566.969C660.906 567.961 661.25 568.359 662.125 568.359C662.367 568.359 662.5 568.352 662.75 568.328V569.484C662.484 569.531 662.227 569.562 661.961 569.562ZM672.273 569.562C670.539 569.562 669.812 568.922 669.812 567.312V562.203H668.484V561.078H669.812V558.898H671.219V561.078H673.062V562.203H671.219V566.969C671.219 567.961 671.562 568.359 672.438 568.359C672.68 568.359 672.812 568.352 673.062 568.328V569.484C672.797 569.531 672.539 569.562 672.273 569.562ZM675.172 569.5V557.734H676.531V562.344H676.656C677.078 561.453 677.867 560.93 679.109 560.93C681 560.93 682.055 562.047 682.055 564.047V569.5H680.695V564.375C680.695 562.859 680.07 562.133 678.727 562.133C677.383 562.133 676.531 563.039 676.531 564.516V569.5H675.172ZM687.953 569.648C685.547 569.648 684.094 567.961 684.094 565.32V565.312C684.094 562.711 685.578 560.93 687.867 560.93C690.156 560.93 691.547 562.633 691.547 565.148V565.68H685.484C685.523 567.422 686.484 568.438 687.984 568.438C689.125 568.438 689.828 567.898 690.055 567.391L690.086 567.32H691.445L691.43 567.383C691.141 568.523 689.938 569.648 687.953 569.648ZM687.859 562.141C686.609 562.141 685.656 562.992 685.508 564.594H690.164C690.023 562.93 689.102 562.141 687.859 562.141ZM701.602 569.648C699.242 569.648 697.734 567.938 697.734 565.266V565.25C697.734 562.633 699.234 560.93 701.594 560.93C703.641 560.93 704.867 562.109 705.117 563.609L705.125 563.656H703.773L703.766 563.633C703.555 562.805 702.805 562.133 701.594 562.133C700.078 562.133 699.125 563.352 699.125 565.25V565.266C699.125 567.203 700.094 568.445 701.594 568.445C702.727 568.445 703.445 567.945 703.758 567.008L703.773 566.961L705.117 566.953L705.102 567.039C704.758 568.562 703.625 569.648 701.602 569.648ZM710.57 569.648C708.172 569.648 706.688 567.992 706.688 565.297V565.281C706.688 562.578 708.172 560.93 710.57 560.93C712.969 560.93 714.453 562.578 714.453 565.281V565.297C714.453 567.992 712.969 569.648 710.57 569.648ZM710.57 568.445C712.164 568.445 713.062 567.281 713.062 565.297V565.281C713.062 563.289 712.164 562.133 710.57 562.133C708.977 562.133 708.078 563.289 708.078 565.281V565.297C708.078 567.281 708.977 568.445 710.57 568.445ZM719.672 569.648C717.539 569.648 716.141 567.922 716.141 565.297V565.281C716.141 562.641 717.531 560.93 719.672 560.93C720.828 560.93 721.836 561.508 722.297 562.406H722.422V557.734H723.781V569.5H722.422V568.156H722.297C721.781 569.094 720.844 569.648 719.672 569.648ZM719.984 568.445C721.516 568.445 722.453 567.242 722.453 565.297V565.281C722.453 563.336 721.516 562.133 719.984 562.133C718.445 562.133 717.531 563.32 717.531 565.281V565.297C717.531 567.258 718.445 568.445 719.984 568.445ZM729.828 569.648C727.422 569.648 725.969 567.961 725.969 565.32V565.312C725.969 562.711 727.453 560.93 729.742 560.93C732.031 560.93 733.422 562.633 733.422 565.148V565.68H727.359C727.398 567.422 728.359 568.438 729.859 568.438C731 568.438 731.703 567.898 731.93 567.391L731.961 567.32H733.32L733.305 567.383C733.016 568.523 731.812 569.648 729.828 569.648ZM729.734 562.141C728.484 562.141 727.531 562.992 727.383 564.594H732.039C731.898 562.93 730.977 562.141 729.734 562.141ZM737.336 566.016V565.297C737.328 564.266 737.828 563.562 738.898 562.922C739.805 562.367 740.156 561.875 740.156 561.047V561.031C740.156 560.07 739.406 559.359 738.242 559.359C737.062 559.359 736.312 560.055 736.234 561.164L736.219 561.172L734.891 561.18V561.164C734.977 559.484 736.102 558.141 738.297 558.141C740.266 558.141 741.609 559.359 741.609 560.961V560.977C741.609 562.195 740.977 563.062 739.977 563.664C738.984 564.25 738.703 564.688 738.703 565.508V566.016H737.336ZM738.125 569.641C737.492 569.641 737.039 569.188 737.039 568.555C737.039 567.914 737.492 567.461 738.125 567.461C738.758 567.461 739.203 567.914 739.203 568.555C739.203 569.188 738.758 569.641 738.125 569.641Z" fill="#202223"/>
<path d="M752.414 569.5V558.227H756.859C759.172 558.227 760.609 559.57 760.609 561.664V561.68C760.609 563.195 759.797 564.43 758.422 564.891L760.953 569.5H758.93L756.633 565.164H754.164V569.5H752.414ZM754.164 563.742H756.688C758.031 563.742 758.812 563.008 758.812 561.727V561.711C758.812 560.461 757.984 559.695 756.633 559.695H754.164V563.742ZM766.219 569.664C763.734 569.664 762.234 567.969 762.234 565.281V565.273C762.234 562.625 763.766 560.852 766.133 560.852C768.5 560.852 769.953 562.562 769.953 565.109V565.703H763.938C763.969 567.328 764.859 568.273 766.258 568.273C767.344 568.273 767.992 567.734 768.195 567.297L768.227 567.234L769.859 567.227L769.844 567.297C769.562 568.414 768.391 569.664 766.219 569.664ZM766.141 562.242C764.984 562.242 764.109 563.031 763.961 564.492H768.273C768.141 562.977 767.289 562.242 766.141 562.242ZM775.055 569.664C773.008 569.664 771.711 568.703 771.547 567.281V567.273H773.242L773.25 567.281C773.461 567.922 774.078 568.352 775.086 568.352C776.133 568.352 776.859 567.875 776.859 567.18V567.164C776.859 566.633 776.461 566.273 775.477 566.047L774.125 565.734C772.523 565.367 771.781 564.641 771.781 563.398V563.391C771.781 561.914 773.156 560.852 775.078 560.852C777.016 560.852 778.258 561.82 778.406 563.203V563.211H776.789V563.195C776.625 562.602 776.023 562.156 775.07 562.156C774.141 562.156 773.469 562.617 773.469 563.297V563.312C773.469 563.844 773.859 564.172 774.812 564.398L776.156 564.703C777.789 565.086 778.57 565.781 778.57 567.008V567.023C778.57 568.594 777.07 569.664 775.055 569.664ZM784.156 569.664C781.672 569.664 780.172 567.969 780.172 565.281V565.273C780.172 562.625 781.703 560.852 784.07 560.852C786.438 560.852 787.891 562.562 787.891 565.109V565.703H781.875C781.906 567.328 782.797 568.273 784.195 568.273C785.281 568.273 785.93 567.734 786.133 567.297L786.164 567.234L787.797 567.227L787.781 567.297C787.5 568.414 786.328 569.664 784.156 569.664ZM784.078 562.242C782.922 562.242 782.047 563.031 781.898 564.492H786.211C786.078 562.977 785.227 562.242 784.078 562.242ZM789.906 569.5V561.016H791.602V562.305H791.727C792.141 561.398 792.953 560.852 794.188 560.852C796.086 560.852 797.133 561.984 797.133 564.008V569.5H795.445V564.406C795.445 563 794.859 562.305 793.617 562.305C792.375 562.305 791.602 563.156 791.602 564.523V569.5H789.906ZM802.594 569.641C800.461 569.641 799.078 567.93 799.078 565.266V565.25C799.078 562.562 800.438 560.867 802.594 560.867C803.758 560.867 804.75 561.445 805.203 562.359H805.336V557.688H807.023V569.5H805.336V568.164H805.203C804.711 569.094 803.781 569.641 802.594 569.641ZM803.078 568.195C804.492 568.195 805.359 567.078 805.359 565.266V565.25C805.359 563.438 804.484 562.32 803.078 562.32C801.656 562.32 800.805 563.43 800.805 565.25V565.266C800.805 567.086 801.656 568.195 803.078 568.195ZM817.492 569.664C815.016 569.664 813.5 567.977 813.5 565.234V565.219C813.5 562.531 815.008 560.852 817.484 560.852C819.617 560.852 820.891 562.055 821.125 563.703V563.742L819.5 563.75L819.492 563.727C819.305 562.891 818.617 562.266 817.492 562.266C816.078 562.266 815.227 563.391 815.227 565.219V565.234C815.227 567.109 816.094 568.25 817.492 568.25C818.555 568.25 819.211 567.766 819.484 566.852L819.5 566.812H821.125L821.109 566.883C820.805 568.531 819.594 569.664 817.492 569.664ZM826.641 569.664C824.148 569.664 822.625 568 822.625 565.266V565.25C822.625 562.523 824.156 560.852 826.641 560.852C829.117 560.852 830.648 562.516 830.648 565.25V565.266C830.648 568 829.125 569.664 826.641 569.664ZM826.641 568.25C828.094 568.25 828.922 567.141 828.922 565.266V565.25C828.922 563.367 828.094 562.266 826.641 562.266C825.18 562.266 824.359 563.367 824.359 565.25V565.266C824.359 567.148 825.18 568.25 826.641 568.25ZM835.766 569.641C833.633 569.641 832.25 567.93 832.25 565.266V565.25C832.25 562.562 833.609 560.867 835.766 560.867C836.93 560.867 837.922 561.445 838.375 562.359H838.508V557.688H840.195V569.5H838.508V568.164H838.375C837.883 569.094 836.953 569.641 835.766 569.641ZM836.25 568.195C837.664 568.195 838.531 567.078 838.531 565.266V565.25C838.531 563.438 837.656 562.32 836.25 562.32C834.828 562.32 833.977 563.43 833.977 565.25V565.266C833.977 567.086 834.828 568.195 836.25 568.195ZM846.281 569.664C843.797 569.664 842.297 567.969 842.297 565.281V565.273C842.297 562.625 843.828 560.852 846.195 560.852C848.562 560.852 850.016 562.562 850.016 565.109V565.703H844C844.031 567.328 844.922 568.273 846.32 568.273C847.406 568.273 848.055 567.734 848.258 567.297L848.289 567.234L849.922 567.227L849.906 567.297C849.625 568.414 848.453 569.664 846.281 569.664ZM846.203 562.242C845.047 562.242 844.172 563.031 844.023 564.492H848.336C848.203 562.977 847.352 562.242 846.203 562.242Z" fill="#005FCE"/>
<rect x="1258" y="952" width="116" height="36" rx="18" fill="#1F5199"/>
<path fill-rule="evenodd" clip-rule="evenodd" d="M1284.4 970C1284.4 970.442 1284.76 970.8 1285.2 970.8C1285.64 970.8 1286 970.442 1286 970C1286 969.558 1285.64 969.2 1285.2 969.2C1284.76 969.2 1284.4 969.558 1284.4 970ZM1281.2 970C1281.2 970.442 1281.56 970.8 1282 970.8C1282.44 970.8 1282.8 970.442 1282.8 970C1282.8 969.558 1282.44 969.2 1282 969.2C1281.56 969.2 1281.2 969.558 1281.2 970ZM1278 970C1278 970.442 1278.36 970.8 1278.8 970.8C1279.24 970.8 1279.6 970.442 1279.6 970C1279.6 969.558 1279.24 969.2 1278.8 969.2C1278.36 969.2 1278 969.558 1278 970ZM1282 963.6C1278.47 963.6 1275.6 966.471 1275.6 970C1275.6 971.203 1275.94 972.326 1276.52 973.289L1275.66 975.285C1275.54 975.585 1275.6 975.934 1275.83 976.166C1275.99 976.318 1276.19 976.4 1276.4 976.4C1276.51 976.4 1276.61 976.379 1276.72 976.335L1278.71 975.48C1279.67 976.06 1280.8 976.4 1282 976.4C1285.53 976.4 1288.4 973.529 1288.4 970C1288.4 966.471 1285.53 963.6 1282 963.6Z" fill="white"/>
<path d="M1298.57 974.211C1296.17 974.211 1294.69 972.512 1294.69 969.781V969.77C1294.69 967.027 1296.17 965.334 1298.56 965.334C1300.49 965.334 1301.95 966.553 1302.14 968.281V968.328H1300.66L1300.66 968.305C1300.44 967.303 1299.63 966.641 1298.56 966.641C1297.13 966.641 1296.23 967.842 1296.23 969.764V969.775C1296.23 971.703 1297.13 972.904 1298.57 972.904C1299.64 972.904 1300.44 972.307 1300.66 971.375L1300.66 971.346H1302.14V971.387C1301.92 973.08 1300.52 974.211 1298.57 974.211ZM1306.45 974.129C1304.52 974.129 1303.36 972.875 1303.36 970.801V970.789C1303.36 968.732 1304.54 967.473 1306.45 967.473C1308.36 967.473 1309.53 968.727 1309.53 970.789V970.801C1309.53 972.875 1308.36 974.129 1306.45 974.129ZM1306.45 972.945C1307.46 972.945 1308.03 972.154 1308.03 970.807V970.795C1308.03 969.447 1307.45 968.65 1306.45 968.65C1305.43 968.65 1304.85 969.447 1304.85 970.795V970.807C1304.85 972.154 1305.43 972.945 1306.45 972.945ZM1310.99 974V967.596H1312.45V968.574H1312.55C1312.86 967.889 1313.47 967.473 1314.4 967.473C1315.83 967.473 1316.61 968.334 1316.61 969.857V974H1315.15V970.197C1315.15 969.201 1314.74 968.697 1313.86 968.697C1312.99 968.697 1312.45 969.307 1312.45 970.268V974H1310.99ZM1320.85 974.029C1319.38 974.029 1318.77 973.537 1318.77 972.301V968.727H1317.78V967.596H1318.77V966.025H1320.26V967.596H1321.61V968.727H1320.26V971.955C1320.26 972.594 1320.51 972.863 1321.12 972.863C1321.32 972.863 1321.43 972.857 1321.61 972.84V973.965C1321.4 974.006 1321.13 974.029 1320.85 974.029ZM1324.81 974.105C1323.59 974.105 1322.71 973.355 1322.71 972.189V972.178C1322.71 971.035 1323.58 970.367 1325.14 970.273L1326.78 970.174V969.623C1326.78 968.984 1326.37 968.633 1325.58 968.633C1324.91 968.633 1324.48 968.873 1324.33 969.295L1324.33 969.318H1322.95L1322.96 969.266C1323.1 968.188 1324.13 967.473 1325.65 967.473C1327.3 967.473 1328.22 968.27 1328.22 969.623V974H1326.78V973.121H1326.68C1326.33 973.742 1325.65 974.105 1324.81 974.105ZM1324.15 972.119C1324.15 972.664 1324.61 972.986 1325.25 972.986C1326.13 972.986 1326.78 972.412 1326.78 971.65V971.135L1325.34 971.229C1324.53 971.281 1324.15 971.58 1324.15 972.107V972.119ZM1332.72 974.129C1330.8 974.129 1329.66 972.881 1329.66 970.789V970.777C1329.66 968.709 1330.79 967.473 1332.72 967.473C1334.37 967.473 1335.35 968.387 1335.51 969.711V969.734H1334.14L1334.13 969.717C1334 969.096 1333.52 968.65 1332.72 968.65C1331.73 968.65 1331.14 969.436 1331.14 970.777V970.789C1331.14 972.148 1331.73 972.945 1332.72 972.945C1333.48 972.945 1333.94 972.6 1334.12 971.926L1334.14 971.902L1335.51 971.896L1335.5 971.943C1335.29 973.256 1334.35 974.129 1332.72 974.129ZM1339.5 974.029C1338.03 974.029 1337.43 973.537 1337.43 972.301V968.727H1336.43V967.596H1337.43V966.025H1338.91V967.596H1340.27V968.727H1338.91V971.955C1338.91 972.594 1339.16 972.863 1339.77 972.863C1339.98 972.863 1340.09 972.857 1340.27 972.84V973.965C1340.05 974.006 1339.79 974.029 1339.5 974.029ZM1347.04 974.129C1345.6 974.129 1344.86 973.262 1344.86 971.738V967.596H1346.32V971.404C1346.32 972.395 1346.69 972.898 1347.57 972.898C1348.51 972.898 1349.01 972.289 1349.01 971.328V967.596H1350.47V974H1349.01V973.027H1348.91C1348.62 973.713 1347.96 974.129 1347.04 974.129ZM1354.67 974.129C1353.04 974.129 1352.06 973.379 1351.94 972.295V972.283H1353.38L1353.39 972.295C1353.54 972.74 1353.97 973.051 1354.7 973.051C1355.42 973.051 1355.93 972.723 1355.93 972.242V972.23C1355.93 971.855 1355.65 971.609 1354.94 971.451L1353.91 971.217C1352.69 970.947 1352.11 970.373 1352.11 969.43V969.424C1352.11 968.27 1353.16 967.473 1354.67 967.473C1356.23 967.473 1357.16 968.246 1357.26 969.283V969.295H1355.89L1355.88 969.277C1355.78 968.873 1355.35 968.545 1354.67 968.545C1354.02 968.545 1353.55 968.861 1353.55 969.342V969.348C1353.55 969.723 1353.82 969.951 1354.51 970.109L1355.55 970.338C1356.8 970.619 1357.39 971.152 1357.39 972.084V972.096C1357.39 973.314 1356.25 974.129 1354.67 974.129Z" fill="white"/>
</svg>
