<svg width="700" height="320" viewBox="0 0 700 320" fill="none" xmlns="http://www.w3.org/2000/svg">
<g clip-path="url(#clip0_9465_27706)">
<g clip-path="url(#clip1_9465_27706)">
<g clip-path="url(#clip2_9465_27706)">
<path d="M684 0H16C7.16344 0 0 7.16344 0 16V304C0 312.837 7.16344 320 16 320H684C692.837 320 700 312.837 700 304V16C700 7.16344 692.837 0 684 0Z" fill="url(#paint0_linear_9465_27706)"/>
<g opacity="0.8" filter="url(#filter0_f_9465_27706)">
<path d="M660 100C748.366 100 820 28.3656 820 -60C820 -148.366 748.366 -220 660 -220C571.634 -220 500 -148.366 500 -60C500 28.3656 571.634 100 660 100Z" fill="#1875E2" fill-opacity="0.4"/>
</g>
<g opacity="0.8" filter="url(#filter1_f_9465_27706)">
<path d="M20 373C108.366 373 180 301.366 180 213C180 124.634 108.366 53 20 53C-68.3656 53 -140 124.634 -140 213C-140 301.366 -68.3656 373 20 373Z" fill="#1881E2" fill-opacity="0.33"/>
</g>
<g opacity="0.8" filter="url(#filter2_f_9465_27706)">
</g>
<g opacity="0.8" filter="url(#filter3_f_9465_27706)">
<path d="M20 573C108.366 573 180 501.366 180 413C180 324.634 108.366 253 20 253C-68.3656 253 -140 324.634 -140 413C-140 501.366 -68.3656 573 20 573Z" fill="#4018E2" fill-opacity="0.22"/>
</g>
<path opacity="0.2" d="M0 50H700" stroke="url(#paint1_radial_9465_27706)" stroke-dasharray="4 4"/>
<path opacity="0.1" d="M0 82H700" stroke="url(#paint2_radial_9465_27706)" stroke-dasharray="4 4"/>
<path opacity="0.2" d="M239 0V320" stroke="url(#paint3_radial_9465_27706)" stroke-dasharray="4 4"/>
<path opacity="0.1" d="M271 0V320" stroke="url(#paint4_radial_9465_27706)" stroke-dasharray="4 4"/>
<path opacity="0.2" d="M461 0V320" stroke="url(#paint5_radial_9465_27706)" stroke-dasharray="4 4"/>
<path opacity="0.1" d="M429 0V320" stroke="url(#paint6_radial_9465_27706)" stroke-dasharray="4 4"/>
<path opacity="0.2" d="M0 271H700" stroke="url(#paint7_radial_9465_27706)" stroke-dasharray="4 4"/>
<path opacity="0.1" d="M0 239H700" stroke="url(#paint8_radial_9465_27706)" stroke-dasharray="4 4"/>
<g style="mix-blend-mode:overlay" opacity="0.1">
<path d="M0 160H700" stroke="url(#paint9_linear_9465_27706)"/>
</g>
<g style="mix-blend-mode:overlay" opacity="0.2">
<path d="M511 321L189 -1" stroke="url(#paint10_linear_9465_27706)"/>
</g>
<g style="mix-blend-mode:overlay" opacity="0.1">
<path d="M350 239C393.63 239 429 203.63 429 160C429 116.37 393.63 81 350 81C306.37 81 271 116.37 271 160C271 203.63 306.37 239 350 239Z" stroke="white"/>
</g>
<path d="M440 160C440 215.228 395.228 260 340 260C284.772 260 240 215.228 240 160C240 104.771 284.772 60 340 60C395.228 60 440 104.771 440 160Z" fill="#006FF0"/>
<path d="M298.346 109.27C281.611 141.815 287.059 148.235 272.353 162.941C272.563 162.731 285.149 151.053 285.352 150.835L298.073 137.179C301.289 133.727 305.782 131.763 310.5 131.786C338.844 131.922 384.788 132.685 387.451 131.766C398.942 127.802 398.947 119.871 398.949 115.894V115.887C398.951 112.975 398.947 105.396 390.092 101.092C388.392 100.265 386.484 100.004 384.594 100.004L313.485 100C307.117 100 301.258 103.607 298.346 109.27Z" fill="white"/>
<path d="M306.168 157.323C297.62 168.101 296.054 182.547 295 182.773L308.749 179.817C309.923 179.564 311.114 179.437 312.315 179.439C334.584 179.481 376.495 180.257 378.787 179.437C388.09 176.109 388.093 169.453 388.095 166.114V166.109C388.097 163.73 388.094 157.639 381.483 153.984C379.772 153.038 377.786 152.777 375.831 152.777L316.816 152.774C312.751 152.773 308.694 154.137 306.168 157.323Z" fill="white"/>
<path d="M284.504 226.119C279.721 227.707 275.303 227.721 275 227.773L284.504 226.119C287.385 225.162 290.399 223.634 292.724 221.181C300.94 212.516 307.015 197.774 318.955 197.774L376.083 197.777C377.686 197.777 379.3 197.968 380.793 198.55C389.998 202.137 390.002 208.633 390 211.109V211.114C389.998 214.453 389.993 221.109 378.502 224.437C375.644 225.265 322.915 224.466 295.616 224.438C294.639 224.437 293.682 224.521 292.719 224.689L284.504 226.119Z" fill="white"/>
</g>
</g>
</g>
<defs>
<filter id="filter0_f_9465_27706" x="260" y="-460" width="800" height="800" filterUnits="userSpaceOnUse" color-interpolation-filters="sRGB">
<feFlood flood-opacity="0" result="BackgroundImageFix"/>
<feBlend mode="normal" in="SourceGraphic" in2="BackgroundImageFix" result="shape"/>
<feGaussianBlur stdDeviation="120" result="effect1_foregroundBlur_9465_27706"/>
</filter>
<filter id="filter1_f_9465_27706" x="-380" y="-187" width="800" height="800" filterUnits="userSpaceOnUse" color-interpolation-filters="sRGB">
<feFlood flood-opacity="0" result="BackgroundImageFix"/>
<feBlend mode="normal" in="SourceGraphic" in2="BackgroundImageFix" result="shape"/>
<feGaussianBlur stdDeviation="120" result="effect1_foregroundBlur_9465_27706"/>
</filter>
<filter id="filter2_f_9465_27706" x="260" y="80" width="800" height="800" filterUnits="userSpaceOnUse" color-interpolation-filters="sRGB">
<feFlood flood-opacity="0" result="BackgroundImageFix"/>
<feBlend mode="normal" in="SourceGraphic" in2="BackgroundImageFix" result="shape"/>
<feGaussianBlur stdDeviation="120" result="effect1_foregroundBlur_9465_27706"/>
</filter>
<filter id="filter3_f_9465_27706" x="-380" y="13" width="800" height="800" filterUnits="userSpaceOnUse" color-interpolation-filters="sRGB">
<feFlood flood-opacity="0" result="BackgroundImageFix"/>
<feBlend mode="normal" in="SourceGraphic" in2="BackgroundImageFix" result="shape"/>
<feGaussianBlur stdDeviation="120" result="effect1_foregroundBlur_9465_27706"/>
</filter>
<linearGradient id="paint0_linear_9465_27706" x1="1.27814e-05" y1="320" x2="710.784" y2="26.0793" gradientUnits="userSpaceOnUse">
<stop stop-color="#18E299" stop-opacity="0.09"/>
<stop offset="0.729167" stop-color="#0D9373" stop-opacity="0.08"/>
</linearGradient>
<radialGradient id="paint1_radial_9465_27706" cx="0" cy="0" r="1" gradientUnits="userSpaceOnUse" gradientTransform="translate(-nan -nan) rotate(-nan) scale(-nan -nan)">
<stop offset="0.348958" stop-color="#84FFD3"/>
<stop offset="0.880208" stop-color="#18E299" stop-opacity="0"/>
</radialGradient>
<radialGradient id="paint2_radial_9465_27706" cx="0" cy="0" r="1" gradientUnits="userSpaceOnUse" gradientTransform="translate(-nan -nan) rotate(-nan) scale(-nan -nan)">
<stop offset="0.348958" stop-color="#84FFD3"/>
<stop offset="0.880208" stop-color="#18E299" stop-opacity="0"/>
</radialGradient>
<radialGradient id="paint3_radial_9465_27706" cx="0" cy="0" r="1" gradientUnits="userSpaceOnUse" gradientTransform="translate(-nan -nan) rotate(-nan) scale(-nan -nan)">
<stop offset="0.348958" stop-color="#84FFD3"/>
<stop offset="0.880208" stop-color="#18E299" stop-opacity="0"/>
</radialGradient>
<radialGradient id="paint4_radial_9465_27706" cx="0" cy="0" r="1" gradientUnits="userSpaceOnUse" gradientTransform="translate(-nan -nan) rotate(-nan) scale(-nan -nan)">
<stop offset="0.348958" stop-color="#84FFD3"/>
<stop offset="0.880208" stop-color="#18E299" stop-opacity="0"/>
</radialGradient>
<radialGradient id="paint5_radial_9465_27706" cx="0" cy="0" r="1" gradientUnits="userSpaceOnUse" gradientTransform="translate(-nan -nan) rotate(-nan) scale(-nan -nan)">
<stop offset="0.348958" stop-color="#84FFD3"/>
<stop offset="0.880208" stop-color="#18E299" stop-opacity="0"/>
</radialGradient>
<radialGradient id="paint6_radial_9465_27706" cx="0" cy="0" r="1" gradientUnits="userSpaceOnUse" gradientTransform="translate(-nan -nan) rotate(-nan) scale(-nan -nan)">
<stop offset="0.348958" stop-color="#84FFD3"/>
<stop offset="0.880208" stop-color="#18E299" stop-opacity="0"/>
</radialGradient>
<radialGradient id="paint7_radial_9465_27706" cx="0" cy="0" r="1" gradientUnits="userSpaceOnUse" gradientTransform="translate(-nan -nan) rotate(-nan) scale(-nan -nan)">
<stop offset="0.348958" stop-color="#84FFD3"/>
<stop offset="0.880208" stop-color="#18E299" stop-opacity="0"/>
</radialGradient>
<radialGradient id="paint8_radial_9465_27706" cx="0" cy="0" r="1" gradientUnits="userSpaceOnUse" gradientTransform="translate(-nan -nan) rotate(-nan) scale(-nan -nan)">
<stop offset="0.348958" stop-color="#84FFD3"/>
<stop offset="0.880208" stop-color="#18E299" stop-opacity="0"/>
</radialGradient>
<linearGradient id="paint9_linear_9465_27706" x1="-nan" y1="-nan" x2="-nan" y2="-nan" gradientUnits="userSpaceOnUse">
<stop stop-color="white" stop-opacity="0.1"/>
<stop offset="0.5" stop-color="white"/>
<stop offset="1" stop-color="white" stop-opacity="0.1"/>
</linearGradient>
<linearGradient id="paint10_linear_9465_27706" x1="511" y1="321" x2="189" y2="-1" gradientUnits="userSpaceOnUse">
<stop stop-color="white" stop-opacity="0.1"/>
<stop offset="0.5" stop-color="white"/>
<stop offset="1" stop-color="white" stop-opacity="0.1"/>
</linearGradient>
<clipPath id="clip0_9465_27706">
<rect width="700" height="320" fill="white"/>
</clipPath>
<clipPath id="clip1_9465_27706">
<rect width="700" height="320" fill="white"/>
</clipPath>
<clipPath id="clip2_9465_27706">
<rect width="960" height="860" fill="white" transform="translate(-140 -220)"/>
</clipPath>
</defs>
</svg>
